<?xml version="1.0" standalone="no"?>
<!DOCTYPE svg PUBLIC "-//W3C//DTD SVG 1.1//EN" "http://www.w3.org/Graphics/SVG/1.1/DTD/svg11.dtd" >
<svg xmlns="http://www.w3.org/2000/svg">
<metadata>Generated by IcoMoon</metadata>
<defs>
<font id="SystemLimited-icons" horiz-adv-x="1024">
<font-face units-per-em="1024" ascent="960" descent="-64" />
<missing-glyph horiz-adv-x="1024" />
<glyph unicode="&#x20;" horiz-adv-x="512" d="" />
<glyph unicode="&#xe900;" glyph-name="alert" d="M512 17.067c-226.216 0-409.6 183.383-409.6 409.6s183.384 409.6 409.6 409.6c226.217 0 409.6-183.384 409.6-409.6s-183.383-409.6-409.6-409.6zM460.8 477.887c0-28.277 22.923-51.2 51.2-51.2s51.2 22.923 51.2 51.2v102.4c0 28.277-22.922 51.2-51.2 51.2-28.277 0-51.2-22.923-51.2-51.2v-102.4zM460.8 273.087c0-28.278 22.923-51.2 51.2-51.2s51.2 22.922 51.2 51.2-22.922 51.2-51.2 51.2c-28.277 0-51.2-22.922-51.2-51.2z" />
<glyph unicode="&#xe901;" glyph-name="arrow-down" d="M548.198 32.069l256 256c20.019 20.019 20.019 52.378 0 72.397s-52.378 20.019-72.397 0l-168.602-168.602v593.203c0 28.314-22.886 51.2-51.2 51.2s-51.2-22.886-51.2-51.2v-593.203l-168.602 168.602c-20.019 20.019-52.378 20.019-72.397 0-9.984-9.984-15.002-23.091-15.002-36.198s5.018-26.214 15.002-36.198l256-256c20.019-20.019 52.378-20.019 72.397 0z" />
<glyph unicode="&#xe902;" glyph-name="arrow-left" d="M870.41 477.854h-593.201l168.602 168.602c20.019 20.019 20.019 52.378 0 72.397s-52.378 20.019-72.397 0l-256-256c-20.019-20.019-20.019-52.38 0-72.399l256-255.995c9.984-9.984 23.091-15.002 36.198-15.002s26.214 5.018 36.198 15.002c20.019 20.019 20.019 52.372 0 72.392l-168.602 168.607h593.201c28.314 0 51.2 22.938 51.2 51.2 0 28.26-22.886 51.197-51.2 51.197z" />
<glyph unicode="&#xe903;" glyph-name="arrow-right" d="M906.598 462.853l-256 256c-20.019 20.019-52.378 20.019-72.397 0s-20.019-52.378 0-72.397l168.602-168.602h-593.203c-28.314 0-51.2-22.938-51.2-51.197 0-28.262 22.886-51.2 51.2-51.2h593.203l-168.602-168.607c-20.019-20.019-20.019-52.372 0-72.392 9.984-9.984 23.091-15.002 36.198-15.002s26.214 5.018 36.198 15.002l256 255.995c20.019 20.019 20.019 52.38 0 72.399z" />
<glyph unicode="&#xe904;" glyph-name="arrow-up" d="M563.2 68.257v593.201l168.602-168.602c20.019-20.019 52.378-20.019 72.397 0s20.019 52.378 0 72.397l-256 256c-20.019 20.019-52.378 20.019-72.397 0l-256-256c-9.984-9.984-15.002-23.091-15.002-36.198s5.018-26.214 15.002-36.198c20.019-20.019 52.378-20.019 72.397 0l168.602 168.602v-593.201c0-28.314 22.886-51.2 51.2-51.2s51.2 22.886 51.2 51.2z" />
<glyph unicode="&#xe905;" glyph-name="bulk-select" d="M467.842 536.543l68.514-73.453 170.424 219.576 61.22-54.517-226.33-291.073-129.942 139.308 56.113 60.158zM339.214 836.267h499.171c22.067-0.014 43.223-8.786 58.829-24.389 15.601-15.603 24.371-36.76 24.387-58.825v-499.171c-0.015-22.067-8.786-43.223-24.387-58.829-15.606-15.601-36.762-24.371-58.829-24.387h-499.171c-22.065 0.015-43.223 8.786-58.825 24.387-15.602 15.606-24.374 36.762-24.389 58.829v499.171c0.014 22.065 8.786 43.223 24.389 58.825s36.76 24.374 58.825 24.389zM358.4 733.867v-460.8h460.8v460.8h-460.8zM102.4 631.467h102.4v-512h460.8v-102.4h-483.797c-21.054 0.015-41.243 8.991-56.131 24.95s-23.258 37.606-23.272 60.175v529.275z" />
<glyph unicode="&#xe906;" glyph-name="cancel" d="M584.407 426.657l219.802 219.799c20.019 20.019 20.019 52.378 0 72.397s-52.372 20.019-72.392 0l-219.807-219.802-219.799 219.802c-20.019 20.019-52.378 20.019-72.397 0s-20.019-52.378 0-72.397l219.802-219.799-219.802-219.807c-20.019-20.019-20.019-52.372 0-72.392 9.984-9.984 23.091-15.002 36.198-15.002s26.214 5.018 36.198 15.002l219.799 219.802 219.807-219.802c9.984-9.984 23.086-15.002 36.193-15.002s26.214 5.018 36.198 15.002c20.019 20.019 20.019 52.372 0 72.392l-219.802 219.807z" />
<glyph unicode="&#xe907;" glyph-name="caret-down" d="M256 529.067l256-256 256 256h-512z" />
<glyph unicode="&#xe908;" glyph-name="caret-up" d="M768 273.067l-256 256-256-256h512z" />
<glyph unicode="&#xe909;" glyph-name="chevron-down" d="M512.010 221.857c-13.105 0-26.212 5.012-36.196 14.996l-256 256.003c-20.019 20.019-20.019 52.378 0 72.397s52.378 20.019 72.397 0l219.799-219.799 219.807 219.799c20.019 20.019 52.372 20.019 72.392 0s20.019-52.378 0-72.397l-255.995-256.003c-9.984-9.984-23.096-14.996-36.204-14.996z" />
<glyph unicode="&#xe90a;" glyph-name="chevron-left" d="M614.4 119.467c-13.107 0-26.214 5.018-36.198 15.002l-255.999 256c-20.019 20.019-20.019 52.378 0 72.397l255.999 256c20.019 20.019 52.378 20.019 72.397 0s20.019-52.378 0-72.397l-219.801-219.802 219.801-219.802c20.019-20.019 20.019-52.378 0-72.397-9.984-9.984-23.091-15.002-36.198-15.002z" />
<glyph unicode="&#xe90b;" glyph-name="chevron-right" d="M409.601 119.457c-13.107 0-26.214 5.018-36.198 15.002-20.019 20.019-20.019 52.372 0 72.392l219.801 219.807-219.801 219.799c-20.019 20.019-20.019 52.378 0 72.397s52.378 20.019 72.397 0l255.999-256c20.019-20.019 20.019-52.38 0-72.399l-255.999-255.995c-9.984-9.984-23.091-15.002-36.198-15.002z" />
<glyph unicode="&#xe90c;" glyph-name="chevron-up" d="M768.010 273.057c-13.107 0-26.209 5.012-36.193 14.996l-219.807 219.804-219.799-219.804c-20.019-20.019-52.378-20.019-72.397 0s-20.019 52.378 0 72.397l256 256.003c20.019 20.019 52.38 20.019 72.399 0l255.995-256.003c20.019-20.019 20.019-52.378 0-72.397-9.984-9.984-23.091-14.996-36.198-14.996z" />
<glyph unicode="&#xe90d;" glyph-name="circle-cancel" d="M512 836.287c226.202 0 409.6-183.398 409.6-409.6 0-226.253-183.398-409.6-409.6-409.6s-409.6 183.347-409.6 409.6c0 226.202 183.398 409.6 409.6 409.6zM394.604 616.471c-19.995 19.995-52.413 19.995-72.408 0s-19.995-52.413 0-72.408l117.396-117.396-117.396-117.396c-19.995-19.994-19.995-52.413 0-72.407s52.413-19.994 72.408 0l117.396 117.396 117.396-117.396c19.994-19.994 52.413-19.994 72.407 0s19.994 52.413 0 72.407l-117.396 117.396 117.396 117.396c19.994 19.995 19.994 52.413 0 72.408s-52.413 19.995-72.407 0l-117.396-117.396-117.396 117.396z" />
<glyph unicode="&#xe90e;" glyph-name="circle-chevron-down" d="M921.6 426.667c0-226.202-183.398-409.6-409.6-409.6s-409.6 183.398-409.6 409.6c0 226.202 183.398 409.6 409.6 409.6s409.6-183.398 409.6-409.6zM701.804 514.071c-19.994 19.995-52.413 19.995-72.407 0l-117.396-117.397-117.396 117.397c-19.995 19.995-52.413 19.995-72.408 0s-19.995-52.413 0-72.408l153.6-153.599c19.995-19.994 52.414-19.994 72.408 0l153.6 153.599c19.994 19.995 19.994 52.413 0 72.408z" />
<glyph unicode="&#xe90f;" glyph-name="circle-chevron-left" d="M512 836.267c-226.202 0-409.6-183.398-409.6-409.6s183.398-409.6 409.6-409.6c226.202 0 409.6 183.398 409.6 409.6s-183.398 409.6-409.6 409.6zM599.404 616.471c19.994-19.995 19.994-52.413 0-72.408l-117.396-117.396 117.396-117.396c19.994-19.994 19.994-52.413 0-72.407s-52.413-19.994-72.407 0l-153.601 153.6c-19.995 19.994-19.995 52.412 0 72.408l153.601 153.6c19.994 19.995 52.413 19.995 72.407 0z" />
<glyph unicode="&#xe910;" glyph-name="circle-chevron-right" d="M512 836.267c226.202 0 409.6-183.398 409.6-409.6s-183.398-409.6-409.6-409.6c-226.202 0-409.6 183.398-409.6 409.6s183.398 409.6 409.6 409.6zM424.596 616.471c-19.995-19.995-19.995-52.413 0-72.408l117.397-117.396-117.397-117.396c-19.995-19.994-19.995-52.413 0-72.407s52.413-19.994 72.408 0l153.599 153.6c19.994 19.994 19.994 52.412 0 72.408l-153.599 153.6c-19.995 19.995-52.413 19.995-72.408 0z" />
<glyph unicode="&#xe911;" glyph-name="circle-chevron-up" d="M921.6 426.667c0 226.202-183.398 409.6-409.6 409.6s-409.6-183.398-409.6-409.6c0-226.202 183.398-409.6 409.6-409.6s409.6 183.398 409.6 409.6zM701.804 339.263c-19.994-19.994-52.413-19.994-72.407 0l-117.396 117.396-117.396-117.396c-19.995-19.994-52.413-19.994-72.408 0s-19.995 52.413 0 72.407l153.6 153.601c19.995 19.995 52.414 19.995 72.408 0l153.6-153.601c19.994-19.994 19.994-52.413 0-72.407z" />
<glyph unicode="&#xe912;" glyph-name="circle-disable" d="M204.8 426.667c0 66.253 21.299 127.488 57.088 177.715l427.827-427.827c-50.227-35.789-111.462-57.088-177.715-57.088-169.421 0-307.2 137.779-307.2 307.2zM819.2 426.667c0-66.253-21.299-127.488-57.088-177.715l-427.827 427.827c50.227 35.789 111.462 57.088 177.715 57.088 169.421 0 307.2-137.779 307.2-307.2zM102.4 426.667c0-225.843 183.757-409.6 409.6-409.6s409.6 183.757 409.6 409.6c0 225.843-183.757 409.6-409.6 409.6s-409.6-183.757-409.6-409.6z" />
<glyph unicode="&#xe913;" glyph-name="circle-minus-outline" d="M512 836.267c-225.843 0-409.6-183.757-409.6-409.6s183.757-409.6 409.6-409.6c225.843 0 409.6 183.757 409.6 409.6s-183.757 409.6-409.6 409.6zM512 119.467c-169.421 0-307.2 137.779-307.2 307.2s137.779 307.2 307.2 307.2c169.421 0 307.2-137.779 307.2-307.2s-137.779-307.2-307.2-307.2zM358.4 477.867c-28.314 0-51.2-22.938-51.2-51.2s22.886-51.2 51.2-51.2h307.2c28.314 0 51.2 22.938 51.2 51.2s-22.886 51.2-51.2 51.2h-307.2z" />
<glyph unicode="&#xe914;" glyph-name="circle-minus" d="M768 426.667c0-28.278-22.922-51.2-51.2-51.2h-409.6c-28.277 0-51.2 22.922-51.2 51.2s22.923 51.2 51.2 51.2h409.6c28.278 0 51.2-22.923 51.2-51.2zM512 836.267c-226.202 0-409.6-183.398-409.6-409.6s183.398-409.6 409.6-409.6c226.202 0 409.6 183.398 409.6 409.6s-183.398 409.6-409.6 409.6z" />
<glyph unicode="&#xe915;" glyph-name="circle-plus-outline" d="M512 836.267c-225.843 0-409.6-183.757-409.6-409.6s183.757-409.6 409.6-409.6c225.843 0 409.6 183.757 409.6 409.6s-183.757 409.6-409.6 409.6zM512 119.467c-169.421 0-307.2 137.779-307.2 307.2s137.779 307.2 307.2 307.2c169.421 0 307.2-137.779 307.2-307.2s-137.779-307.2-307.2-307.2zM665.6 477.867h-102.4v102.4c0 28.262-22.886 51.2-51.2 51.2s-51.2-22.938-51.2-51.2v-102.4h-102.4c-28.314 0-51.2-22.938-51.2-51.2s22.886-51.2 51.2-51.2h102.4v-102.4c0-28.262 22.886-51.2 51.2-51.2s51.2 22.938 51.2 51.2v102.4h102.4c28.314 0 51.2 22.938 51.2 51.2s-22.886 51.2-51.2 51.2z" />
<glyph unicode="&#xe916;" glyph-name="circle-plus" d="M768 426.667c0-28.278-22.922-51.2-51.2-51.2h-153.6v-153.6c0-28.278-22.922-51.2-51.2-51.2s-51.2 22.922-51.2 51.2v153.6h-153.6c-28.277 0-51.2 22.922-51.2 51.2s22.923 51.2 51.2 51.2h153.6v153.6c0 28.277 22.923 51.2 51.2 51.2s51.2-22.923 51.2-51.2v-153.6h153.6c28.278 0 51.2-22.923 51.2-51.2zM512 836.267c-226.202 0-409.6-183.398-409.6-409.6s183.398-409.6 409.6-409.6c226.202 0 409.6 183.398 409.6 409.6s-183.398 409.6-409.6 409.6z" />
<glyph unicode="&#xe917;" glyph-name="circle-tick-outline" d="M512 17.067c-225.843 0-409.6 183.757-409.6 409.6s183.757 409.6 409.6 409.6c225.843 0 409.6-183.757 409.6-409.6s-183.757-409.6-409.6-409.6zM512 733.867c-169.421 0-307.2-137.779-307.2-307.2s137.779-307.2 307.2-307.2c169.421 0 307.2 137.779 307.2 307.2s-137.779 307.2-307.2 307.2zM460.8 273.067c-6.725-0.005-13.384 1.316-19.596 3.891-6.212 2.57-11.854 6.349-16.603 11.11l-102.4 102.4c-4.753 4.751-8.524 10.399-11.097 16.609s-3.897 12.867-3.897 19.589c0 13.577 5.393 26.598 14.994 36.198s22.621 14.994 36.198 14.994c13.577 0 26.598-5.393 36.198-14.994l66.202-66.202 168.602 168.602c4.751 4.753 10.399 8.524 16.609 11.097s12.867 3.897 19.589 3.897c6.723 0 13.379-1.324 19.589-3.897s11.858-6.344 16.609-11.097c4.751-4.753 8.525-10.397 11.095-16.608 2.575-6.211 3.896-12.868 3.896-19.591s-1.321-13.38-3.896-19.591c-2.57-6.211-6.344-11.854-11.095-16.608l-204.8-204.8c-4.748-4.762-10.391-8.54-16.603-11.11-6.212-2.575-12.871-3.896-19.596-3.891z" />
<glyph unicode="&#xe918;" glyph-name="circle-tick" d="M102.4 426.667c0 226.216 183.384 409.6 409.6 409.6s409.6-183.384 409.6-409.6c0-226.217-183.383-409.6-409.6-409.6s-409.6 183.383-409.6 409.6zM460.798 273.067c6.725-0.005 13.384 1.316 19.596 3.891 6.212 2.57 11.854 6.349 16.603 11.11l204.802 204.8c4.751 4.753 8.525 10.397 11.095 16.608 2.575 6.211 3.896 12.868 3.896 19.591s-1.321 13.38-3.896 19.59c-2.57 6.211-6.344 11.854-11.095 16.608-4.756 4.753-10.399 8.524-16.609 11.097s-12.867 3.897-19.589 3.897c-6.723 0-13.379-1.324-19.594-3.897-6.211-2.573-11.853-6.344-16.604-11.097l-168.603-168.602-66.202 66.202c-9.601 9.601-22.621 14.994-36.198 14.994s-26.598-5.393-36.198-14.994c-9.601-9.601-14.994-22.622-14.994-36.198 0-6.723 1.324-13.379 3.897-19.589s6.344-11.858 11.097-16.609l102.4-102.4c4.748-4.762 10.391-8.54 16.603-11.11 6.212-2.575 12.872-3.896 19.596-3.891z" />
<glyph unicode="&#xe919;" glyph-name="colors" d="M875.069 325.332c31.636 35.794 48.251 82.391 46.387 130.101v7.788c-6.743 74.715-33.889 146.148-78.484 206.516-44.59 60.367-104.919 107.353-174.403 135.837s-145.464 37.374-219.662 25.701c-74.196-11.673-143.761-43.461-201.116-91.9s-100.297-111.671-124.15-182.807c-23.853-71.135-27.7-147.443-11.123-220.613s52.944-140.39 105.136-194.34c52.192-53.944 118.209-92.554 190.855-111.611 54.145-9.764 109.142-14.019 164.141-12.708h47.196c15.396 0 30.085 7.987 40.381 19.415 10.301 11.433 15.836 26.363 15.468 41.733 0 16.307-6.482 31.944-18.028 43.474-11.54 11.53-27.085 17.971-43.412 17.971-16.323 0-32.548 6.84-44.093 18.371-11.54 11.53-18.028 27.167-18.028 43.474 0 16.302 6.487 31.939 18.028 43.469 11.546 11.53 27.203 18.007 43.525 18.007h137.882c47.631 4.076 91.863 26.322 123.5 62.121zM593.777 693.194c0-33.935-27.505-61.445-61.44-61.445-33.93 0-61.438 27.51-61.438 61.445s27.508 61.445 61.438 61.445c33.935 0 61.44-27.51 61.44-61.445zM327.539 549.822c-33.932 0-61.44 27.51-61.44 61.445s27.508 61.445 61.44 61.445c33.932 0 61.44-27.51 61.44-61.445s-27.508-61.445-61.44-61.445zM286.579 345.008c-33.932 0-61.44 27.51-61.44 61.445 0 33.933 27.508 61.443 61.44 61.443s61.44-27.51 61.44-61.443c0-33.935-27.508-61.445-61.44-61.445zM696.177 508.859c-33.93 0-61.44 27.51-61.44 61.445s27.51 61.445 61.44 61.445c33.935 0 61.44-27.51 61.44-61.445s-27.505-61.445-61.44-61.445z" />
<glyph unicode="&#xe91a;" glyph-name="delete" d="M691.2 703.147h134.4c24.74 0 44.8-20.631 44.8-46.080v-46.080h-716.8l0.001 46.080c0 25.449 20.058 46.080 44.8 46.080h134.399v115.2c0 38.174 30.087 69.12 67.2 69.12h223.999c37.115 0 67.2-30.946 67.2-69.12v-115.2zM422.401 795.307v-92.16h179.199v92.16h-179.199zM198.401 518.827h627.199v-483.84c0-38.175-30.085-69.12-67.2-69.12h-492.799c-37.113 0-67.2 30.945-67.2 69.12v483.84zM377.599 380.587h-89.6v-276.48h89.6v276.48zM556.8 380.587h-89.601v-276.48h89.601v276.48zM646.4 380.587v-276.48h89.6v276.48h-89.6z" />
<glyph unicode="&#xe91b;" glyph-name="download" d="M701.809 462.727c-9.984 9.989-23.091 15.008-36.198 15.008s-26.214-5.020-36.198-15.008l-66.202-66.227v337.345c0 28.325-22.938 51.222-51.2 51.222-28.26 0-51.198-22.897-51.198-51.222v-337.345l-66.202 66.227c-20.019 20.028-52.378 20.028-72.397 0s-20.019-52.398 0-72.428l153.6-153.667c4.454-4.454 9.728-7.629 15.258-10.143 1.394-0.63 2.789-1.060 4.218-1.505l0.595-0.184c4.301-1.485 8.653-2.304 13.158-2.56 0.464-0.031 0.919-0.067 1.372-0.108 1.097-0.092 2.18-0.184 3.337-0.148 5.53 0.154 11.059 1.075 16.384 3.174 0.205 0.077 0.425 0.118 0.64 0.154 0.22 0.041 0.435 0.077 0.64 0.154l0.205 0.051c5.734 2.406 10.65 5.944 15.053 10.040 0.23 0.23 0.502 0.384 0.768 0.538 0.271 0.154 0.538 0.307 0.768 0.538l153.6 153.667c20.019 20.029 20.019 52.4 0 72.428zM179.2 477.867c-42.416 0-76.8-34.384-76.8-76.8v-307.2c0-42.414 34.384-76.8 76.8-76.8h665.6c42.414 0 76.8 34.386 76.8 76.8v307.2c0 42.416-34.386 76.8-76.8 76.8h-102.4v-102.4h76.8v-256h-614.4v256h76.8v102.4h-102.4z" />
<glyph unicode="&#xe91c;" glyph-name="edit" d="M710.477 778.791l153.677-153.71 25.631 25.635c42.429 42.439 42.429 111.237 0 153.676-42.445 42.452-111.268 42.452-153.713 0l-25.595-25.601zM793.6 554.668l-153.677 153.71-487.646-487.673-49.884-203.602 203.559 49.894 487.647 487.671z" />
<glyph unicode="&#xe91d;" glyph-name="email-newsletter" d="M375.468 653.025h273.067v-91.621h-273.067v91.621zM557.512 469.783h-182.044v-91.623h182.044v91.623zM193.424 378.16h-91.024l0.002-343.578c0-37.949 30.564-68.716 68.266-68.716h682.666c37.699 0 68.265 30.766 68.265 68.716v343.578h-91.023v389.391c0 37.951-30.561 68.716-68.265 68.716h-500.621c-37.703 0-68.266-30.765-68.266-68.716v-389.391zM284.446 286.543v458.103h455.112v-458.103l-227.558-126.945-227.554 126.945z" />
<glyph unicode="&#xe91e;" glyph-name="email" d="M102.4 589.158v-409.347c0-33.326 27.508-60.344 61.44-60.344h696.32c33.93 0 61.44 27.018 61.44 60.344v409.351l-388.966-222.845c-12.754-7.306-28.522-7.306-41.275 0l-388.958 222.841zM898.796 669.244c-10.552 8.395-23.997 13.423-38.636 13.423h-696.32c-14.641 0-28.085-5.029-38.641-13.425l386.798-221.602 386.799 221.604z" />
<glyph unicode="&#xe91f;" glyph-name="file-download" d="M582.589 887.467h-352.189c-42.416 0-76.8-30.946-76.8-69.12v-783.36c0-38.175 34.384-69.12 76.8-69.12h563.2c42.414 0 76.8 30.945 76.8 69.12v593.449c0 18.332-8.090 35.913-22.492 48.876l-211.016 189.91c-14.403 12.963-33.935 20.245-54.303 20.245zM322.196 462.871c19.995 19.995 52.413 19.995 72.408 0l66.196-66.197v183.593c0 28.277 22.923 51.2 51.2 51.2s51.2-22.923 51.2-51.2v-183.593l66.196 66.197c19.994 19.995 52.413 19.995 72.407 0s19.994-52.414 0-72.408l-153.6-153.6c-19.994-19.994-52.412-19.994-72.408 0l-153.6 153.6c-19.995 19.994-19.995 52.412 0 72.408z" />
<glyph unicode="&#xe920;" glyph-name="file-upload" d="M582.589 887.467h-352.189c-42.416 0-76.8-30.946-76.8-69.12v-783.36c0-38.175 34.384-69.12 76.8-69.12h563.2c42.414 0 76.8 30.945 76.8 69.12v593.449c0 18.332-8.090 35.913-22.492 48.876l-211.016 189.91c-14.403 12.963-33.935 20.245-54.303 20.245zM701.804 390.463c-19.994-19.994-52.413-19.994-72.407 0l-66.196 66.196v-183.592c0-28.278-22.922-51.2-51.2-51.2s-51.2 22.922-51.2 51.2v183.592l-66.196-66.196c-19.995-19.994-52.413-19.994-72.408 0s-19.995 52.412 0 72.408l153.6 153.6c19.995 19.995 52.414 19.995 72.408 0l153.6-153.6c19.994-19.995 19.994-52.414 0-72.408z" />
<glyph unicode="&#xe921;" glyph-name="file" d="M636.892 867.222c-14.403 12.963-33.935 20.245-54.303 20.245h-352.189c-42.416 0-76.8-30.946-76.8-69.12v-783.36c0-38.175 34.384-69.12 76.8-69.12h563.2c42.414 0 76.8 30.945 76.8 69.12v593.449c0 18.332-8.090 35.913-22.492 48.876l-211.016 189.91z" />
<glyph unicode="&#xe922;" glyph-name="filter" d="M102.4 678.401c0 30.633 19.485 55.466 43.52 55.466h783.36c24.033 0 43.52-24.833 43.52-55.466s-19.487-55.467-43.52-55.467h-783.36c-24.035 0-43.52 24.834-43.52 55.467zM232.96 422.402c0 30.631 19.485 55.465 43.52 55.465h522.24c24.033 0 43.52-24.834 43.52-55.465 0-30.633-19.487-55.47-43.52-55.47h-522.24c-24.035 0-43.52 24.837-43.52 55.47zM450.56 221.867c-24.035 0-43.52-24.832-43.52-55.465s19.485-55.47 43.52-55.47h174.080c24.033 0 43.52 24.837 43.52 55.47s-19.487 55.465-43.52 55.465h-174.080z" />
<glyph unicode="&#xe923;" glyph-name="folder-all" d="M921.6 668.445v-574.578c0-42.414-34.386-76.8-76.8-76.8h-665.6c-42.416 0-76.8 34.386-76.8 76.8v665.6c0 42.416 34.384 76.8 76.8 76.8h209.966c20.369 0 39.903-8.092 54.306-22.494l46.034-46.034c14.403-14.403 33.937-22.494 54.305-22.494h300.989c42.414 0 76.8-34.384 76.8-76.8zM716.8 204.802v232.984c0 10.889-5.847 21.125-15.734 27.553l-168.714 109.662c-12.452 7.023-28.252 7.023-40.704 0l-168.714-109.662c-9.889-6.428-15.734-16.664-15.734-27.553v-232.466c0-19.139 17.192-34.652 38.4-34.652h51.2c21.208 0 38.4 15.514 38.4 34.652v101.883h153.6v-102.4c0-19.139 17.193-34.135 38.4-34.135h51.2c21.207 0 38.4 14.996 38.4 34.135z" />
<glyph unicode="&#xe924;" glyph-name="folder-close" d="M921.6 93.867v574.578c0 42.416-34.386 76.8-76.8 76.8h-300.989c-20.367 0-39.902 8.092-54.305 22.494l-46.034 46.034c-14.403 14.403-33.937 22.494-54.306 22.494h-209.966c-42.416 0-76.8-34.384-76.8-76.8v-665.6c0-42.414 34.384-76.8 76.8-76.8h665.6c42.414 0 76.8 34.386 76.8 76.8z" />
<glyph unicode="&#xe925;" glyph-name="folder-download" d="M921.6 668.445v-574.578c0-42.414-34.386-76.8-76.8-76.8h-665.6c-42.416 0-76.8 34.386-76.8 76.8v665.6c0 42.416 34.384 76.8 76.8 76.8h209.966c20.369 0 39.903-8.092 54.306-22.494l46.034-46.034c14.403-14.403 33.937-22.494 54.305-22.494h300.989c42.414 0 76.8-34.384 76.8-76.8zM460.795 345.464l-66.202 66.202c-4.754 4.751-10.397 8.525-16.608 11.095-6.211 2.575-12.868 3.896-19.59 3.896s-13.38-1.321-19.591-3.896c-6.211-2.57-11.854-6.344-16.608-11.095s-8.525-10.399-11.097-16.609c-2.573-6.211-3.897-12.867-3.897-19.589s1.324-13.379 3.897-19.589c2.572-6.211 6.343-11.858 11.097-16.609l153.6-153.6c4.744-4.772 10.384-8.556 16.596-11.141s12.874-3.912 19.602-3.912c6.727 0 13.388 1.326 19.604 3.912 6.211 2.586 11.853 6.369 16.594 11.141l153.6 153.6c4.756 4.751 8.525 10.399 11.095 16.609 2.575 6.211 3.901 12.867 3.901 19.589s-1.326 13.379-3.901 19.589c-2.57 6.211-6.339 11.858-11.095 16.609-4.751 4.751-10.399 8.525-16.609 11.095-6.211 2.575-12.867 3.896-19.589 3.896s-13.379-1.321-19.589-3.896c-6.211-2.57-11.853-6.344-16.609-11.095l-66.202-66.202v183.603c0 13.579-5.391 26.602-14.996 36.204-9.6 9.602-22.625 14.996-36.203 14.996-13.579 0-26.602-5.394-36.204-14.996s-14.996-22.625-14.996-36.204v-183.603z" />
<glyph unicode="&#xe926;" glyph-name="folder-move" d="M921.6 668.445v-574.578c0-42.414-34.386-76.8-76.8-76.8h-665.6c-42.416 0-76.8 34.386-76.8 76.8v665.6c0 42.416 34.384 76.8 76.8 76.8h209.966c20.369 0 39.903-8.092 54.306-22.494l46.034-46.034c14.403-14.403 33.937-22.494 54.305-22.494h300.989c42.414 0 76.8-34.384 76.8-76.8zM541.972 324.241l-66.202-66.202c-4.753-4.756-8.524-10.399-11.097-16.609s-3.897-12.867-3.897-19.589c0-6.723 1.324-13.379 3.897-19.589 2.573-6.216 6.344-11.858 11.097-16.609 4.754-4.756 10.397-8.525 16.608-11.1 6.211-2.57 12.868-3.896 19.59-3.896s13.379 1.326 19.59 3.896c6.211 2.575 11.853 6.344 16.609 11.1l153.6 153.6c4.772 4.741 8.556 10.383 11.141 16.594 2.58 6.216 3.912 12.877 3.912 19.604s-1.331 13.389-3.912 19.599c-2.586 6.216-6.369 11.853-11.141 16.599l-153.6 153.599c-4.756 4.753-10.399 8.524-16.609 11.097s-12.867 3.897-19.59 3.897c-6.723 0-13.38-1.324-19.59-3.897s-11.854-6.344-16.608-11.097c-4.753-4.754-8.524-10.397-11.097-16.608s-3.897-12.868-3.897-19.59c0-6.723 1.324-13.38 3.897-19.591s6.344-11.854 11.097-16.608l66.202-66.201h-183.604c-13.579 0-26.602-5.396-36.204-14.996-9.602-9.605-14.996-22.625-14.996-36.204s5.394-26.604 14.996-36.204c9.602-9.605 22.625-14.996 36.204-14.996h183.604z" />
<glyph unicode="&#xe927;" glyph-name="folder-new" d="M921.6 668.445c0 42.416-34.386 76.8-76.8 76.8h-300.989c-20.367 0-39.902 8.092-54.305 22.494l-46.034 46.034c-14.403 14.403-33.937 22.494-54.306 22.494h-209.966c-42.416 0-76.8-34.384-76.8-76.8v-665.6c0-42.414 34.384-76.8 76.8-76.8h665.6c42.414 0 76.8 34.386 76.8 76.8v574.578zM460.8 529.067c0 28.277 22.923 51.2 51.2 51.2s51.2-22.923 51.2-51.2v-102.4h102.4c28.278 0 51.2-22.922 51.2-51.2s-22.922-51.2-51.2-51.2h-102.4v-102.4c0-28.278-22.922-51.2-51.2-51.2-28.277 0-51.2 22.922-51.2 51.2v102.4h-102.4c-28.277 0-51.2 22.922-51.2 51.2s22.923 51.2 51.2 51.2h102.4v102.4z" />
<glyph unicode="&#xe928;" glyph-name="folder-open" d="M793.6 745.245c37.555 0 68.818-26.957 75.484-62.578h-704.037c-37.667 0-69.774-27.317-75.808-64.498l-38.039-234.398v375.695c0 42.416 34.384 76.8 76.8 76.8h209.966c20.369 0 39.903-8.092 54.306-22.494l46.034-46.034c14.403-14.403 33.937-22.494 54.306-22.494h300.988zM1009.541 542.365l-74.778-460.801c-6.036-37.181-38.144-64.497-75.812-64.497h-717.484c-47.325 0-83.389 42.388-75.808 89.103l74.779 460.799c6.034 37.18 38.141 64.498 75.808 64.498h717.488c47.324 0 83.384-42.388 75.807-89.102z" />
<glyph unicode="&#xe929;" glyph-name="folder-star" d="M921.6 668.445v-574.578c0-42.414-34.386-76.8-76.8-76.8h-665.6c-42.416 0-76.8 34.386-76.8 76.8v665.6c0 42.416 34.384 76.8 76.8 76.8h209.966c20.369 0 39.903-8.092 54.306-22.494l46.034-46.034c14.403-14.403 33.937-22.494 54.305-22.494h300.989c42.414 0 76.8-34.384 76.8-76.8zM377.092 174.558c3.564-2.58 7.782-3.891 12.022-3.891 3.092 0 6.205 0.696 9.073 2.13l115.242 56.893 112.189-56.812c6.779-3.441 14.971-2.847 21.176 1.618 6.226 4.444 9.421 11.981 8.356 19.558l-19.046 133.197 74.691 74.691c5.407 5.386 7.352 13.332 5.059 20.623-2.294 7.269-8.438 12.676-15.954 14.007l-115.139 20.5-54.354 111.653c-3.42 7.025-10.506 11.489-18.309 11.53-7.251 0.266-14.931-4.342-18.433-11.325l-56.771-113.538-112.6-18.78c-7.557-1.249-13.783-6.635-16.118-13.945s-0.41-15.299 5.018-20.726l74.671-74.691-19.026-133.197c-1.085-7.537 2.109-15.032 8.253-19.497z" />
<glyph unicode="&#xe92a;" glyph-name="folder-uncategorized" d="M512 324.282c-14.138 0-25.598 11.459-25.598 25.595v51.2c0 14.136 11.461 25.597 25.598 25.597s25.6-11.461 25.6-25.597v-51.2c0-14.136-11.464-25.595-25.6-25.595zM512 221.887c-14.138 0-25.598 11.459-25.598 25.595 0 14.141 11.461 25.6 25.598 25.6s25.6-11.459 25.6-25.6c0-14.136-11.464-25.595-25.6-25.595zM921.6 668.445c0 42.416-34.386 76.8-76.8 76.8h-300.989c-20.367 0-39.902 8.092-54.305 22.494l-46.034 46.034c-14.403 14.403-33.937 22.494-54.306 22.494h-209.966c-42.416 0-76.8-34.384-76.8-76.8v-665.6c0-42.414 34.384-76.8 76.8-76.8h665.6c42.414 0 76.8 34.386 76.8 76.8v574.578zM534.912 567.214l179.19-359.38c3.968-7.931 3.533-17.377-1.126-24.95-4.685-7.572-12.902-12.196-21.786-12.196h-358.381c-8.883 0-17.125 4.623-21.785 12.196s-5.094 17.019-1.126 24.95l179.191 359.38c8.678 17.404 37.145 17.404 45.823 0z" />
<glyph unicode="&#xe92b;" glyph-name="folder-upload" d="M921.6 668.445v-574.578c0-42.414-34.386-76.8-76.8-76.8h-665.6c-42.416 0-76.8 34.386-76.8 76.8v665.6c0 42.416 34.384 76.8 76.8 76.8h209.966c20.369 0 39.903-8.092 54.306-22.494l46.034-46.034c14.403-14.403 33.937-22.494 54.305-22.494h300.989c42.414 0 76.8-34.384 76.8-76.8zM563.195 405.419l66.202-66.202c4.756-4.756 10.399-8.525 16.609-11.1 6.211-2.57 12.867-3.896 19.589-3.896s13.379 1.326 19.589 3.896c6.211 2.575 11.858 6.344 16.609 11.1 4.756 4.751 8.525 10.394 11.1 16.604 2.57 6.211 3.896 12.872 3.896 19.594s-1.326 13.379-3.896 19.589c-2.575 6.211-6.344 11.853-11.1 16.609l-153.6 153.598c-4.741 4.771-10.383 8.557-16.594 11.141-6.216 2.584-12.877 3.914-19.604 3.914s-13.39-1.33-19.602-3.914-11.853-6.37-16.596-11.141l-153.6-153.598c-4.753-4.756-8.524-10.399-11.097-16.609s-3.897-12.867-3.897-19.589c0-6.723 1.324-13.384 3.897-19.594s6.344-11.853 11.097-16.604c4.754-4.756 10.397-8.525 16.608-11.1 6.211-2.57 12.868-3.896 19.59-3.896s13.38 1.326 19.591 3.896c6.211 2.575 11.854 6.344 16.608 11.1l66.202 66.202v-183.603c0-13.583 5.394-26.604 14.996-36.204 9.602-9.605 22.625-14.996 36.204-14.996 13.578 0 26.603 5.391 36.203 14.996 9.605 9.6 14.996 22.62 14.996 36.204v183.603z" />
<glyph unicode="&#xe92c;" glyph-name="grid" d="M102.4 768.001c0 37.703 30.564 68.266 68.266 68.266h682.669c37.699 0 68.265-30.564 68.265-68.266v-682.669c0-37.699-30.566-68.265-68.265-68.265h-682.669c-37.703 0-68.266 30.566-68.266 68.265v682.669zM193.422 462.065h283.18v283.18h-230.084c-29.324 0-53.096-23.772-53.096-53.096v-230.084zM476.602 108.090v283.177h-283.18v-230.083c0-29.322 23.772-53.094 53.096-53.094h230.084zM547.4 391.267v-283.177h230.083c29.322 0 53.094 23.772 53.094 53.094v230.083h-283.177zM547.4 462.065h283.177v230.084c0 29.324-23.772 53.096-53.094 53.096h-230.083v-283.18z" />
<glyph unicode="&#xe92d;" glyph-name="horizontal-dots" d="M307.2 426.667c0-56.525-45.875-102.4-102.4-102.4s-102.4 45.875-102.4 102.4c0 56.525 45.875 102.4 102.4 102.4s102.4-45.875 102.4-102.4zM614.4 426.667c0-56.525-45.875-102.4-102.4-102.4s-102.4 45.875-102.4 102.4c0 56.525 45.875 102.4 102.4 102.4s102.4-45.875 102.4-102.4zM921.6 426.667c0-56.525-45.875-102.4-102.4-102.4s-102.4 45.875-102.4 102.4c0 56.525 45.875 102.4 102.4 102.4s102.4-45.875 102.4-102.4z" />
<glyph unicode="&#xe92e;" glyph-name="info" d="M921.6 426.667c0 226.202-183.398 409.6-409.6 409.6s-409.6-183.398-409.6-409.6c0-226.202 183.398-409.6 409.6-409.6s409.6 183.398 409.6 409.6zM460.8 273.067v102.4c0 28.278 22.923 51.2 51.2 51.2s51.2-22.922 51.2-51.2v-102.4c0-28.278-22.922-51.2-51.2-51.2-28.277 0-51.2 22.922-51.2 51.2zM460.8 580.267c0 28.277 22.923 51.2 51.2 51.2s51.2-22.923 51.2-51.2-22.922-51.2-51.2-51.2c-28.277 0-51.2 22.923-51.2 51.2z" />
<glyph unicode="&#xe92f;" glyph-name="list" d="M102.4 768.001v-682.669c0-37.699 30.564-68.265 68.266-68.265h682.669c37.699 0 68.265 30.566 68.265 68.265v682.669c0 37.703-30.566 68.266-68.265 68.266h-682.669c-37.703 0-68.266-30.564-68.266-68.266zM420.978 654.222h364.087v-91.022h-364.087v91.022zM785.065 472.178v-91.023h-364.087v91.023h364.087zM420.978 290.132h364.087v-91.018h-364.087v91.018zM284.445 563.201c-25.135 0-45.511 20.376-45.511 45.511s20.376 45.511 45.511 45.511c25.135 0 45.511-20.376 45.511-45.511s-20.376-45.511-45.511-45.511zM329.955 426.667c0-25.134-20.376-45.512-45.511-45.512s-45.511 20.378-45.511 45.512c0 25.135 20.376 45.511 45.511 45.511s45.511-20.376 45.511-45.511zM284.445 199.114c-25.135 0-45.511 20.372-45.511 45.507 0 25.139 20.376 45.512 45.511 45.512s45.511-20.372 45.511-45.512c0-25.134-20.376-45.507-45.511-45.507z" />
<glyph unicode="&#xe930;" glyph-name="lock" d="M768 529.067v51.2c0 141.158-114.842 256-256 256s-256-114.842-256-256v-51.2c-28.277 0-51.2-22.923-51.2-51.2 0-128 0-256 0-384 0-42.414 34.384-76.8 76.8-76.8h460.8c42.414 0 76.8 34.386 76.8 76.8 0 128 0 256 0 384 0 28.277-22.922 51.2-51.2 51.2zM460.8 170.667v204.8h102.4v-204.8h-102.4zM665.6 529.067h-307.2v51.2c0 84.685 68.915 153.6 153.6 153.6s153.6-68.915 153.6-153.6v-51.2z" />
<glyph unicode="&#xe931;" glyph-name="log-out" d="M512-34.133c226.217 0 409.6 183.383 409.6 409.6s-183.383 409.6-409.6 409.6c-226.216 0-409.6-183.384-409.6-409.6s183.384-409.6 409.6-409.6zM475.796 492.863c-19.995 19.995-19.995 52.413 0 72.408s52.414 19.995 72.408 0l153.6-153.601c19.994-19.994 19.994-52.413 0-72.407l-153.6-153.6c-19.994-19.994-52.412-19.994-72.408 0s-19.995 52.413 0 72.407l66.197 66.196h-183.593c-28.277 0-51.2 22.922-51.2 51.2s22.923 51.2 51.2 51.2h183.593l-66.197 66.196z" />
<glyph unicode="&#xe932;" glyph-name="module-cdn" d="M783.473 530.937c-13.578 70.389-51.144 133.848-106.25 179.496-55.112 45.647-124.334 70.641-195.801 70.696v-61.651c57.177-0.076 112.549-20.087 156.643-56.607 44.088-36.52 74.158-87.279 85.053-143.588l7.941-41.377 41.452-7.551c41.492-7.55 78.674-30.385 104.253-64.024 25.574-33.633 37.699-75.648 33.987-117.786-3.712-42.143-22.984-81.372-54.042-109.993-31.058-28.616-71.654-44.559-113.828-44.692h-261.459v-61.655h261.459c57.513 0.164 112.891 21.883 155.259 60.892 42.373 39.014 68.68 92.508 73.759 149.975 5.079 57.472-11.433 114.77-46.3 160.655-34.867 45.883-85.571 77.038-142.157 87.348l0.031-0.138zM235.6 195.371h184.4v-61.65h-184.4v61.65zM112.655 195.371h61.455v-61.65h-61.455v61.65zM174.11 318.707h245.753v-61.65h-245.753v61.65zM51.2 318.707h61.455v-61.65h-61.455v61.65zM235.6 442.011h184.4v-61.649h-184.4v61.649zM112.655 442.011h61.455v-61.649h-61.455v61.649zM297.056 565.314h122.911v-61.651h-122.911v61.651zM174.11 565.314h61.455v-61.651h-61.455v61.651zM358.512 688.651h61.455v-61.651h-61.455v61.651z" />
<glyph unicode="&#xe933;" glyph-name="module-colors" d="M394.979 543.474c0-11.567-3.43-22.873-9.857-32.491s-15.56-17.115-26.248-21.542c-10.687-4.428-22.448-5.589-33.795-3.335s-21.771 7.82-29.954 15.996c-8.183 8.176-13.757 18.594-16.019 29.938s-1.109 23.102 3.313 33.79c4.422 10.689 11.914 19.826 21.529 26.257s20.922 9.869 32.49 9.876c15.515 0 30.395-6.162 41.366-17.132s17.173-25.846 17.173-41.358zM570.522 631.247c0-11.568-3.43-22.876-9.861-32.495-6.426-9.618-15.565-17.115-26.255-21.542s-22.451-5.585-33.799-3.328c-11.348 2.257-21.772 7.827-29.953 16.007s-13.753 18.602-16.010 29.948c-2.257 11.346-1.099 23.106 3.329 33.794s11.926 19.823 21.546 26.249c9.62 6.427 20.931 9.858 32.502 9.858 15.514 0 30.392-6.162 41.364-17.131s17.137-25.846 17.137-41.359zM746.020 543.474c0-11.567-3.425-22.873-9.856-32.491-6.426-9.618-15.56-17.115-26.245-21.542-10.691-4.428-22.446-5.589-33.797-3.335-11.346 2.254-21.77 7.82-29.952 15.996s-13.757 18.594-16.020 29.938c-2.258 11.343-1.106 23.102 3.313 33.79 4.424 10.689 11.914 19.826 21.53 26.257s20.925 9.869 32.492 9.876c15.514 0 30.397-6.162 41.364-17.132 10.972-10.969 17.172-25.846 17.172-41.358zM775.311 367.966c0-11.566-3.43-22.871-9.856-32.492-6.426-9.615-15.56-17.116-26.25-21.54-10.685-4.429-22.446-5.591-33.792-3.338-11.351 2.253-21.77 7.823-29.957 15.995-8.182 8.177-13.757 18.596-16.015 29.942-2.263 11.341-1.111 23.101 3.313 33.787 4.419 10.691 11.914 19.83 21.53 26.26s20.92 9.866 32.486 9.876c15.519 0 30.397-6.164 41.37-17.132 10.967-10.972 17.172-25.846 17.172-41.359zM658.268 221.744c0-11.571-3.43-22.881-9.856-32.497-6.431-9.62-15.565-17.116-26.255-21.545-10.691-4.424-22.451-5.586-33.802-3.328-11.346 2.258-21.77 7.828-29.952 16.010-8.182 8.177-13.752 18.601-16.010 29.947s-1.096 23.107 3.328 33.792c4.429 10.691 11.93 19.825 21.55 26.25s20.931 9.856 32.497 9.856c15.519 0 30.397-6.159 41.37-17.132 10.972-10.967 17.132-25.846 17.132-41.354zM527.811 835.961c-55.106 2.13-110.073-6.886-161.607-26.51s-98.574-49.449-138.299-87.69c-39.725-38.241-71.318-84.108-92.884-134.852s-32.661-105.319-32.62-160.453c-0.003-21.688 4.998-43.080 14.612-62.52s23.585-36.398 40.824-49.556c17.239-13.164 37.282-22.17 58.57-26.322s43.248-3.343 64.171 2.376l32.78 9.073c13.034 3.564 26.715 4.065 39.975 1.469s25.742-8.218 36.472-16.425c10.731-8.212 19.42-18.785 25.391-30.904s9.062-25.457 9.033-38.963v-109.88c0-11.525 2.27-22.932 6.68-33.577s10.874-20.316 19.022-28.462c8.148-8.146 17.822-14.607 28.469-19.021 10.646-4.408 22.057-6.676 33.581-6.676 107.278 0.031 210.267 42.127 286.842 117.243s120.627 177.265 122.701 284.503c2.074 107.238-38.001 211.012-111.621 289.031-73.615 78.019-174.899 124.060-282.092 128.234v-0.116zM765.066 183.38c-32.666-34.186-71.941-61.384-115.441-79.939s-90.312-28.083-137.605-28.001c-7.759 0-15.199 3.082-20.684 8.566s-8.567 12.923-8.567 20.68v109.998c-0.041 38.769-15.478 75.94-42.916 103.337s-64.634 42.783-103.413 42.772c-13.107-0.041-26.152-1.812-38.793-5.279l-32.78-9.073c-12.239-3.287-25.070-3.707-37.497-1.229s-24.117 7.782-34.161 15.508c-10.044 7.721-18.173 17.659-23.756 29.030s-8.47 23.88-8.436 36.547c-0.035 47.263 9.476 94.045 27.962 137.542s45.567 82.813 79.62 115.592c34.053 32.779 74.375 58.344 118.55 75.165s91.292 24.548 138.527 22.72c88.038-4.537 171.274-41.546 233.61-103.871s99.354-145.544 103.89-233.569c2.017-47.267-5.632-94.448-22.482-138.659-16.85-44.206-42.542-84.516-75.51-118.456l-0.118 0.62z" />
<glyph unicode="&#xe934;" glyph-name="module-compress" d="M320.824 617.807h-218.424v-54.47h273.021v272.93h-54.461l-0.136-218.46zM703.037 617.807v218.46h-54.456v-273.066h273.019v54.47l-218.563 0.136zM648.443 17.067h54.461v218.46h218.424v54.472h-272.886v-272.932zM102.4 235.527h218.424v-218.46h54.461v273.065h-272.885v-54.605z" />
<glyph unicode="&#xe935;" glyph-name="module-download" d="M327.969 767.533c51.176 44.132 116.451 68.506 184.031 68.717 65.331 0.753 128.609-22.835 177.5-66.168 48.896-43.334 79.913-103.311 87.009-168.254 39.823-5.219 76.431-24.634 103.086-54.678s41.569-68.697 42.004-108.856c-0.594-44.396-18.796-86.743-50.611-117.724-31.811-30.976-74.629-48.056-119.030-47.478h-137.605c-6.789 0-13.302 2.698-18.104 7.496-4.797 4.803-7.496 11.31-7.496 18.099s2.698 13.297 7.496 18.099c4.803 4.797 11.315 7.496 18.104 7.496h137.682c30.807-0.538 60.57 11.162 82.76 32.532 22.19 21.376 35 50.678 35.61 81.48-0.599 30.822-13.414 60.146-35.62 81.531-22.211 21.384-51.999 33.080-82.826 32.52h-25.6v25.633c-0.471 27.671-6.395 54.978-17.423 80.36s-26.952 48.345-46.858 67.574c-19.907 19.23-43.407 34.351-69.156 44.499s-53.248 15.127-80.922 14.649c-55.294-0.227-108.689-20.196-150.56-56.308-16.539-12.545-30.319-28.36-40.481-46.459s-16.489-38.098-18.587-58.749v-22.919l-22.805-2.521c-34.119-3.261-65.837-18.99-89.080-44.177s-36.379-58.060-36.891-92.326c0.693-37.080 16.084-72.367 42.79-98.1 26.706-25.738 62.541-39.818 99.625-39.142h113.599c6.789 0 13.3-2.693 18.1-7.496 4.801-4.797 7.497-11.31 7.497-18.099 0-6.784-2.697-13.297-7.497-18.094-4.801-4.803-11.311-7.501-18.1-7.501h-113.599c-50.658-0.66-99.508 18.816-135.812 54.149s-57.094 83.63-57.799 134.283c0.437 43.224 15.6 85.006 42.986 118.452s65.359 56.557 107.652 65.518c10.329 48.031 36.784 91.083 74.97 122l-0.039-0.038zM493.889 24.593c2.378-2.386 5.204-4.28 8.315-5.571s6.447-1.956 9.817-1.956c3.369 0 6.702 0.666 9.815 1.956s5.939 3.185 8.315 5.571l153.626 153.605c4.808 4.808 7.511 11.331 7.511 18.13s-2.703 13.322-7.511 18.13c-4.808 4.808-11.331 7.511-18.13 7.511-6.804 0-13.322-2.703-18.135-7.511l-109.875-109.937v450.15c0 6.788-2.698 13.298-7.496 18.098-4.803 4.799-11.31 7.496-18.099 7.496-6.791 0-13.301-2.697-18.102-7.496s-7.497-11.31-7.497-18.098v-450.191l-109.992 109.942c-2.381 2.381-5.208 4.265-8.319 5.555s-6.446 1.951-9.813 1.951c-3.367 0-6.702-0.66-9.812-1.951s-5.938-3.174-8.319-5.555c-2.381-2.381-4.27-5.207-5.559-8.32s-1.952-6.446-1.952-9.81c0-3.369 0.664-6.702 1.952-9.815 1.289-3.108 3.177-5.934 5.559-8.315l153.702-153.569z" />
<glyph unicode="&#xe936;" glyph-name="module-elementor" d="M885.11 17.067h-447.888c-9.674 0.010-18.948 3.86-25.789 10.701s-10.689 16.113-10.7 25.784v149.238c0.011 9.672 3.859 18.944 10.7 25.784s16.115 10.691 25.789 10.701h447.888c9.677-0.010 18.949-3.86 25.789-10.701s10.691-16.113 10.701-25.784v-149.197c0.015-4.797-0.916-9.549-2.744-13.988-1.823-4.434-4.511-8.468-7.9-11.863-3.395-3.395-7.424-6.083-11.858-7.916s-9.19-2.77-13.988-2.76zM473.797 90.078h374.868v76.227h-374.868v-76.227zM288.142 17.067h-149.253c-9.674 0.010-18.948 3.86-25.789 10.701s-10.689 16.113-10.7 25.784v745.796c0.057 9.642 3.926 18.872 10.761 25.674s16.083 10.626 25.727 10.637h149.21c9.674-0.012 18.948-3.859 25.788-10.699s10.689-16.113 10.7-25.786v-745.663c0-9.667-3.84-18.939-10.675-25.769-6.835-6.835-16.105-10.675-25.771-10.675zM175.334 90.078h76.275v672.741h-76.189l-0.087-672.741zM437.221 315.368c-9.674 0.010-18.948 3.86-25.789 10.701-6.84 6.835-10.689 16.113-10.7 25.784v149.194c0.011 9.673 3.859 18.946 10.7 25.786s16.115 10.687 25.789 10.699h447.888c9.677-0.011 18.949-3.859 25.789-10.699s10.691-16.113 10.701-25.786v-149.194c0-9.677-3.845-18.959-10.685-25.8-6.845-6.84-16.128-10.685-25.805-10.685h-447.888zM473.711 388.38h374.868v76.183h-374.868v-76.183zM885.023 613.973h-447.801c-9.674 0.011-18.948 3.859-25.789 10.699s-10.689 16.113-10.7 25.786v149.324c0.011 9.673 3.859 18.947 10.7 25.786s16.115 10.687 25.789 10.699h447.888c9.677-0.011 18.949-3.859 25.789-10.699s10.691-16.113 10.701-25.786v-149.194c0.015-4.798-0.916-9.552-2.744-13.989-1.823-4.436-4.511-8.468-7.9-11.863-3.395-3.395-7.424-6.086-11.858-7.918s-9.19-2.769-13.988-2.758l-0.087-0.087zM473.711 686.986h374.868v76.268h-374.868v-76.268z" />
<glyph unicode="&#xe937;" glyph-name="module-folder-lock" d="M716.795 439.755c13.532-0.031 26.506-5.592 36.081-15.469s14.971-23.26 15.007-37.233v-264.238c0-13.998-5.376-27.423-14.956-37.33-9.58-9.912-22.574-15.493-36.132-15.524h-358.388c-13.554 0-26.555 5.545-36.153 15.427-9.598 9.876-15.011 23.281-15.050 37.274v264.238c0 14.019 5.394 27.464 14.997 37.376 9.603 9.91 22.626 15.479 36.206 15.479h358.388zM358.407 492.765c-27.16 0-53.208-11.137-72.412-30.962s-29.994-46.713-29.994-74.75v-264.238c-0.005-13.885 2.64-27.633 7.784-40.463s12.687-24.489 22.197-34.309c9.51-9.82 20.801-17.613 33.228-22.927s25.746-8.049 39.198-8.049h358.388c27.156 0 53.207 11.136 72.412 30.961s29.993 46.715 29.993 74.752v264.274c0 28.037-10.788 54.925-29.993 74.75s-45.256 30.962-72.412 30.962h-358.388zM358.407 651.293v-158.527h51.241v158.527c0 35.040 13.485 68.645 37.488 93.422s56.558 38.697 90.501 38.697c33.946 0 66.504-13.92 90.506-38.697s37.484-58.382 37.484-93.422v-158.527h51.169v158.527c0 49.058-18.883 96.107-52.485 130.797-33.608 34.69-79.186 54.178-126.71 54.178s-93.104-19.488-126.709-54.178-52.485-81.738-52.485-130.797z" />
<glyph unicode="&#xe938;" glyph-name="module-folder" d="M607.764 674.784c-27.817 0.006-54.492 11.629-74.163 32.312l-43.424 45.658c-19.667 20.683-46.343 32.306-74.16 32.312h-192.437c-27.82 0-54.499-11.619-74.17-32.301s-30.723-48.733-30.723-77.982l2.087-47.931c-5.453-8.365-9.797-17.501-12.89-27.158-4.652-14.525-6.373-29.911-5.054-45.175l33.388-385.953c2.369-27.397 14.392-52.879 33.712-71.439 19.32-18.555 44.539-28.851 70.708-28.861h542.721c26.168 0.010 51.389 10.307 70.707 28.861 19.323 18.56 31.345 44.042 33.715 71.439l33.388 385.953c1.321 15.261-0.399 30.643-5.053 45.166-4.649 14.522-12.124 27.867-21.955 39.182-9.825 11.315-21.791 20.353-35.123 26.537-13.338 6.183-27.75 9.378-42.327 9.379h-208.947zM490.327 674.784h-283.004c-12.248 0.004-24.384-2.248-35.862-6.634l-0.328 7.666c0.256 14.386 5.85 28.096 15.587 38.205s22.847 15.817 36.532 15.904h192.764c13.887-0.013 27.202-5.816 37.025-16.137l37.284-39.004zM207.323 619.643h609.281c7.286-0.001 14.49-1.597 21.156-4.688s12.646-7.608 17.562-13.263c4.915-5.656 8.653-12.325 10.977-19.584 2.33-7.259 3.19-14.948 2.534-22.577l-33.28-385.95c-1.178-13.701-7.188-26.445-16.845-35.727s-22.262-14.433-35.348-14.444h-542.685c-13.084 0.010-25.692 5.161-35.348 14.444s-15.664 22.026-16.844 35.727l-33.388 385.95c-0.657 7.629 0.205 15.318 2.531 22.577s6.065 13.928 10.979 19.584c4.914 5.656 10.894 10.173 17.56 13.263s13.872 4.687 21.157 4.688z" />
<glyph unicode="&#xe939;" glyph-name="module-gutenberg" d="M905.308 560.286c-3.973 2.481-8.438 4.21-13.138 5.087s-9.539 0.886-14.239 0.026c-4.705-0.86-9.175-2.573-13.158-5.040-3.988-2.466-7.404-5.638-10.061-9.332-65.992-91.94-205.875-96.806-213.13-96.806h-3.395c-50.534-0.166-99.983-13.566-142.644-38.649-42.659-25.088-76.785-60.831-98.437-103.112-2.328-5.13-3.267-10.711-2.735-16.256 0.532-5.54 2.519-10.88 5.787-15.549s7.72-8.53 12.967-11.244c5.247-2.714 11.13-4.198 17.139-4.321 7.107-0.031 14.065 1.889 19.998 5.514s10.576 8.791 13.346 14.853c15.142 28.534 38.113 52.884 66.614 70.615 28.498 17.731 61.527 28.216 95.78 30.413v-174.495c-1.894-17.987-8.095-35.354-18.15-50.842-10.056-15.483-23.716-28.703-39.982-38.687-41.933-24.566-91.013-36.593-140.581-34.447-31.49-1.116-62.858 4.214-91.868 15.606-29.010 11.397-54.949 28.58-75.966 50.324-45.617 52.475-68.318 118.892-63.618 186.117l0.698 192.361c-1.007 60.885 21.486 120.103 63.432 166.999 21.050 21.705 46.994 38.861 75.997 50.254s60.355 16.744 91.837 15.675c49.568 2.145 98.649-9.882 140.582-34.45 17.101-10.527 31.309-24.604 41.498-41.111s16.077-34.988 17.193-53.972v-4.306c0-11.301 4.849-22.139 13.476-30.131 8.632-7.991 20.337-12.481 32.538-12.481 12.206 0 23.91 4.489 32.543 12.481 8.627 7.991 13.476 18.829 13.476 30.131v4.306c-2.58 28.949-12.047 57.010-27.725 82.168-15.683 25.158-37.181 46.79-62.961 63.342-59.197 38.177-130.256 57.382-202.339 54.69-43.465 1.566-86.79-5.475-127.081-20.655s-76.619-38.146-106.557-67.366c-57.583-59.206-89.196-136.199-88.638-215.875 0-6.287-0.697-12.23-0.697-18.474l0.558-173.371h-0.837c-4.55-86.052 27.448-170.337 89.149-234.824 29.951-29.251 66.298-52.244 106.613-67.446s83.669-22.257 127.165-20.705c72.104-2.616 143.181 16.481 202.573 54.431 23.496 15.304 43.423 34.826 58.604 57.4 15.181 22.579 25.298 47.754 29.757 74.030l2.043 193.782c78.746 14.828 148.521 56.687 195.323 117.177 3.041 3.491 5.248 7.544 6.461 11.888s1.413 8.878 0.579 13.299c-0.829 4.421-2.673 8.625-5.407 12.332-2.729 3.707-6.282 6.831-10.424 9.161l0.046-0.517z" />
<glyph unicode="&#xe93a;" glyph-name="module-lazyload" d="M275.847 401.052l-159.091-79.816c-4.338-2.186-7.965-5.443-10.493-9.421-2.528-3.973-3.863-8.52-3.863-13.153s1.335-9.18 3.863-13.158c2.528-3.973 6.155-7.229 10.493-9.421l408.039-204.81c3.937-1.976 8.33-3.005 12.79-3.005s8.852 1.029 12.79 3.005l408.038 204.81c4.337 2.191 7.962 5.448 10.491 9.421 2.529 3.978 3.86 8.525 3.86 13.158s-1.331 9.18-3.86 13.153c-2.529 3.978-6.154 7.235-10.491 9.421l-158.961 79.816-57.815-29.020 146.232-73.385-350.254-175.795-350.253 175.795 146.235 73.385-57.751 29.020zM524.826 730.863c3.937 1.972 8.33 3.004 12.79 3.004s8.852-1.032 12.79-3.004l408.038-204.813c4.337-2.19 7.967-5.446 10.491-9.421 2.529-3.976 3.866-8.522 3.866-13.155s-1.336-9.18-3.866-13.156c-2.524-3.976-6.154-7.231-10.491-9.421l-408.038-204.814c-3.937-1.971-8.33-3-12.79-3s-8.852 1.029-12.79 3l-408.036 204.814c-4.339 2.19-7.965 5.446-10.493 9.421s-3.864 8.522-3.864 13.156c0 4.633 1.335 9.18 3.864 13.155s6.154 7.231 10.493 9.421l408.036 204.813zM187.43 503.458l350.185-175.791 350.254 175.791-350.254 175.793-350.185-175.793z" />
<glyph unicode="&#xe93b;" glyph-name="module-media-rename" d="M908.017 492.21l-96.445 96.449c-8.699 8.675-20.485 13.546-32.768 13.546-12.288 0-24.069-4.872-32.773-13.546l-409.582-409.708v-161.884h161.877l409.727 409.421c8.678 8.698 13.548 20.483 13.548 32.77s-4.869 24.071-13.548 32.772l-0.036 0.181zM474.051 75.548h-79.091v79.201l276.185 276.23 79.124-79.13-276.219-276.301zM791.644 393.151l-79.124 79.131 66.299 66.304 79.13-79.13-66.304-66.305zM365.72 397.391h58.512v204.819h87.75v58.514h-234.048v-58.514h87.786v-204.819zM278.117 309.639h-117.205v468.113h468.095v-117.21h58.511v117.21c0 15.519-6.164 30.403-17.137 41.376s-25.856 17.138-41.375 17.138h-468.095c-15.518 0-30.401-6.165-41.374-17.138s-17.138-25.857-17.138-41.376v-468.113c0-15.519 6.164-30.403 17.138-41.375 10.973-10.977 25.856-17.142 41.374-17.142h117.205v58.516z" />
<glyph unicode="&#xe93c;" glyph-name="module-replace" d="M867.046 509.295v-89.289c-0.056-49.587-20.214-97.126-56.054-132.193-35.845-35.062-84.439-54.784-135.127-54.84h-466.608l76.282 74.629-38.615 37.775-141.121-138.056 126.376-139.054 40.827 35.512-68.875 75.725h471.733c65.147 0.087 127.596 25.446 173.66 70.513 46.060 45.061 71.982 106.153 72.074 169.887v142.795l-54.554-53.403zM156.953 433.33c0.056 49.587 20.216 97.127 56.057 132.19s84.436 54.786 135.123 54.84h466.608l-76.14-74.627 38.615-37.777 141.015 138.057-126.377 139.054-40.827-35.51 68.838-75.76h-471.733c-65.144-0.091-127.593-25.447-173.657-70.511s-71.983-106.158-72.076-169.887v-143.241l54.623 53.432-0.070 89.74z" />
<glyph unicode="&#xe93d;" glyph-name="module-star" d="M918.134 528.634c-3.932 12.612-11.121 23.851-20.782 32.481-9.656 8.63-21.412 14.316-33.971 16.434l-197.852 33.507-91.868 185.917c-5.837 11.834-14.689 21.763-25.59 28.695-10.895 6.932-23.414 10.599-36.183 10.599-12.767 0-25.287-3.667-36.184-10.599s-19.751-16.861-25.588-28.695l-91.672-185.754-197.852-33.507c-12.568-2.153-24.325-7.866-33.987-16.515s-16.857-19.9-20.797-32.523c-3.94-12.623-4.474-26.133-1.544-39.051s9.211-24.749 18.158-34.197l141.183-148.458-30.544-206.459c-1.956-13.148-0.396-26.604 4.509-38.886s12.963-22.922 23.291-30.74c10.328-7.818 22.524-12.518 35.248-13.583s25.484 1.551 36.875 7.557l178.924 94.075 178.96-94.075c11.397-5.99 24.151-8.591 36.869-7.521s24.909 5.77 35.231 13.588c10.322 7.813 18.381 18.442 23.291 30.72 4.905 12.273 6.477 25.723 4.536 38.866l-30.505 206.459 141.143 148.295c9.016 9.428 15.35 21.273 18.304 34.224s2.376 26.5-1.603 39.149zM862.597 495.372l-160.584-168.673 34.811-234.834c0.466-2.826 0.169-5.729-0.865-8.387-1.029-2.657-2.749-4.961-4.966-6.656-2.222-1.695-4.849-2.714-7.593-2.934-2.739-0.225-5.489 0.358-7.931 1.674l-203.366 106.998-203.366-106.998c-2.443-1.316-5.191-1.9-7.932-1.674-2.742 0.22-5.37 1.239-7.589 2.934s-3.94 3.999-4.97 6.656c-1.031 2.657-1.329 5.56-0.862 8.387l34.768 234.875-160.894 168.632c-1.915 2.019-3.261 4.548-3.89 7.311s-0.518 5.651 0.322 8.352c0.84 2.701 2.375 5.11 4.439 6.963s4.577 3.079 7.264 3.544l225.033 38.113 104.304 211.271c1.243 2.535 3.132 4.662 5.462 6.148s5.007 2.272 7.738 2.272c2.73 0 5.408-0.786 7.738-2.272s4.219-3.613 5.463-6.148l104.3-211.271 225.034-38.113c2.688-0.465 5.202-1.691 7.265-3.544s3.599-4.261 4.439-6.963c0.84-2.701 0.952-5.59 0.323-8.352s-1.976-5.292-3.891-7.311z" />
<glyph unicode="&#xe93e;" glyph-name="module-trash" d="M374.153 535.893c3.62 0 7.205-0.706 10.55-2.079s6.384-3.383 8.944-5.919c2.56-2.535 4.591-5.546 5.976-8.859s2.099-6.864 2.099-10.449v-327.68c0-7.245-2.905-14.188-8.075-19.308s-12.183-7.997-19.494-7.997c-7.312 0-14.324 2.877-19.494 7.997s-8.075 12.063-8.075 19.308v327.68c0 7.242 2.905 14.188 8.075 19.309s12.183 7.998 19.494 7.998zM511.999 535.893c7.312 0 14.326-2.877 19.492-7.998 5.171-5.121 8.074-12.067 8.074-19.309v-327.68c0-7.245-2.903-14.188-8.074-19.308-5.166-5.12-12.18-7.997-19.492-7.997s-14.324 2.877-19.494 7.997c-5.171 5.12-8.075 12.063-8.075 19.308v327.68c0 7.242 2.905 14.188 8.075 19.309s12.183 7.998 19.494 7.998zM677.581 508.587c0 7.242-2.903 14.188-8.074 19.309s-12.186 7.998-19.497 7.998c-7.311 0-14.321-2.877-19.492-7.998s-8.074-12.067-8.074-19.309v-327.68c0-7.245 2.903-14.188 8.074-19.308s12.18-7.997 19.492-7.997c7.311 0 14.326 2.877 19.497 7.997s8.074 12.063 8.074 19.308v327.68zM870.4 672.263c0-14.484-5.811-28.376-16.148-38.618-10.342-10.242-24.366-15.996-38.989-15.996h-27.571v-491.358c0-14.341-2.852-28.544-8.392-41.8-5.545-13.251-13.665-25.293-23.905-35.436s-22.4-18.186-35.779-23.675c-13.379-5.489-27.72-8.315-42.199-8.315h-330.832c-14.482 0-28.822 2.826-42.201 8.315s-25.537 13.532-35.777 23.675c-10.24 10.143-18.363 22.185-23.905 35.436-5.542 13.256-8.395 27.459-8.395 41.8v491.522h-27.569c-14.595 0-28.595 5.731-38.93 15.938s-16.164 24.055-16.208 38.512v54.777c0 14.484 5.809 28.376 16.15 38.617s24.366 15.996 38.989 15.996h192.985c0 14.484 5.809 28.376 16.15 38.618s24.365 15.996 38.989 15.996h110.276c14.623 0 28.652-5.754 38.989-15.996 10.342-10.242 16.148-24.133 16.148-38.618h192.988c14.623 0 28.646-5.754 38.989-15.996 10.337-10.242 16.148-24.133 16.148-38.617v-54.777zM297.987 617.813l-6.54-3.198v-488.324c0-14.484 5.809-28.375 16.15-38.615 10.34-10.245 24.365-15.995 38.989-15.995h330.832c14.623 0 28.646 5.75 38.989 15.995 10.337 10.24 16.148 24.131 16.148 38.615v488.324l-6.543 3.198h-428.024zM208.738 672.263h606.524v54.777h-606.524v-54.777z" />
<glyph unicode="&#xe93f;" glyph-name="module-user-folders" d="M921.482 17.067h-58.394v146.186c-0.041 38.789-15.462 75.976-42.885 103.404-27.418 27.428-64.599 42.854-103.373 42.895v58.527c54.287-0.061 106.337-21.658 144.727-60.058 38.385-38.4 59.981-90.465 60.042-144.768l-0.118-146.186zM687.437 17.067h-58.511v146.186c-0.041 38.789-15.462 75.976-42.885 103.404-27.418 27.428-64.594 42.854-103.373 42.895h-175.496c-38.778-0.041-75.955-15.468-103.375-42.895s-42.843-64.614-42.884-103.404v-146.186h-58.511v146.186c0.061 54.303 21.656 106.368 60.044 144.768s90.437 59.996 144.727 60.058h175.496c54.288-0.061 106.338-21.658 144.728-60.058s59.981-90.465 60.042-144.768v-146.186zM628.925 836.267v-58.528c38.789 0 75.991-15.414 103.419-42.85 27.433-27.437 42.839-64.649 42.839-103.451s-15.406-76.014-42.839-103.45c-27.428-27.437-64.63-42.851-103.419-42.851v-58.526c54.308 0 106.394 21.578 144.794 59.991 38.405 38.413 59.976 90.512 59.976 144.836s-21.571 106.423-59.976 144.836c-38.4 38.413-90.486 59.993-144.794 59.993zM394.919 777.739c28.927 0 57.205-8.58 81.257-24.656s42.797-38.925 53.866-65.658c11.075-26.733 13.967-56.15 8.325-84.529s-19.574-54.448-40.028-74.908c-20.455-20.461-46.516-34.395-74.888-40.039s-57.779-2.748-84.505 8.325c-26.725 11.073-49.568 29.825-65.639 53.884s-24.649 52.345-24.649 81.281c0 38.801 15.41 76.014 42.839 103.451s64.631 42.85 103.421 42.85zM394.919 836.267c-40.5 0-80.090-12.013-113.764-34.52s-59.92-54.497-75.419-91.924c-15.499-37.428-19.554-78.612-11.653-118.345s27.404-76.23 56.041-104.876c28.638-28.646 65.124-48.154 104.846-56.057s80.894-3.847 118.311 11.656 69.398 41.756 91.9 75.44c22.497 33.684 34.509 73.286 34.509 113.797 0 26.898-5.299 53.534-15.585 78.385-10.291 24.851-25.375 47.431-44.39 66.451s-41.589 34.108-66.433 44.401c-24.844 10.294-51.471 15.592-78.363 15.592z" />
<glyph unicode="&#xe940;" glyph-name="module-watermark" d="M896 785.067h-768c-46.080 0-76.8-19.084-76.8-65.164v-586.474c0-46.080 30.72-65.162 76.8-65.162h768c46.080 0 76.8 19.082 76.8 65.162v586.474c0 46.080-30.72 65.164-76.8 65.164zM921.6 119.467h-819.2v614.4h819.2v-614.4zM512 426.667h358.4v-256h-358.4v256z" />
<glyph unicode="&#xe941;" glyph-name="module-webp" d="M870.395 785.067h-716.789c-13.581 0-26.605-5.395-36.208-14.998s-14.998-22.627-14.998-36.207v-614.39c0-13.578 5.395-26.604 14.998-36.209 9.603-9.6 22.627-14.996 36.208-14.996h716.789c13.578 0 26.604 5.396 36.209 14.996 9.6 9.605 14.996 22.63 14.996 36.209v614.39c0 6.724-1.326 13.383-3.896 19.595-2.575 6.212-6.349 11.857-11.1 16.612-4.756 4.755-10.404 8.526-16.614 11.1s-12.872 3.898-19.594 3.898zM153.606 119.472v614.39h716.789v-614.39h-716.789zM279.534 529.076c15.188 0 30.035 4.504 42.664 12.942s22.471 20.431 28.283 34.462c5.812 14.032 7.333 29.472 4.37 44.367s-10.277 28.579-21.017 39.318c-10.74 10.739-24.423 18.053-39.319 21.016s-30.337 1.442-44.369-4.37c-14.032-5.812-26.025-15.654-34.463-28.282s-12.942-27.475-12.942-42.662c0-20.366 8.091-39.898 22.492-54.299s33.934-22.492 54.3-22.492zM634.348 493.956l-138.247-138.242-102.413 102.409c-4.795 4.774-11.286 7.455-18.053 7.455s-13.258-2.68-18.053-7.455l-154.841-156.87v-72.448l173.81 173.804 84.224-82.934-95.83-95.995h70.243l216.331 216.323 167.665-166.915v72.177l-148.833 148.692c-4.792 4.774-11.284 7.455-18.053 7.455-6.764 0-13.256-2.68-18.053-7.455h0.102z" />
<glyph unicode="&#xe942;" glyph-name="module-woocommerce" d="M136.697 692.479c-11.256-0.005-22.401-2.163-32.795-6.35s-19.833-10.322-27.775-18.053c-7.943-7.73-14.233-16.904-18.51-26.996s-6.458-20.902-6.416-31.812v-277.527c-0.005-10.931 2.214-21.76 6.529-31.862s10.64-19.282 18.617-27.013c7.976-7.731 17.446-13.86 27.868-18.043s21.593-6.333 32.872-6.328h355.312l162.378-87.675-36.936 87.675h269.036c11.284-0.010 22.461 2.14 32.886 6.318 10.424 4.183 19.901 10.312 27.878 18.043 7.982 7.731 14.31 16.911 18.627 27.013 4.316 10.107 6.538 20.936 6.533 31.872v277.527c0.005 10.933-2.212 21.76-6.528 31.862s-10.639 19.28-18.616 27.011c-7.977 7.731-17.449 13.862-27.868 18.044-10.424 4.182-21.591 6.332-32.876 6.328l-750.215-0.034zM446.957 643.659c7.512-0.144 14.749-2.762 20.524-7.42 3.371-2.459 6.159-5.59 8.177-9.181s3.218-7.56 3.52-11.639c0.504-6.057-0.8-12.128-3.757-17.487-19.129-41.847-31.446-86.317-36.51-131.824-8.473-45.902-12.036-92.53-10.634-139.143 0.911-8.274-0.665-16.625-4.537-24.049-1.854-3.697-4.676-6.856-8.184-9.165s-7.579-3.686-11.808-3.994c-5.656-0.056-11.253 1.111-16.381 3.425-5.128 2.309-9.656 5.709-13.252 9.938-40.488 44.462-69.092 97.884-83.298 155.566-18.408-34.908-36.498-69.949-54.268-105.128-22.19-41.226-41.047-62.459-56.714-63.596-10.173-0.722-18.822 7.665-26.407 25.221-29.285 90.424-50.152 183.214-62.35 277.25-0.719 4.261-0.556 8.618 0.479 12.817s2.92 8.158 5.547 11.644c2.821 3.494 6.417 6.327 10.523 8.29s8.613 3.004 13.191 3.047c3.995 0.757 8.113 0.646 12.058-0.326s7.618-2.78 10.755-5.294c3.137-2.514 5.658-5.671 7.383-9.245s2.611-7.473 2.593-11.418c11.674-76.339 24.351-140.962 38.033-193.869l82.554 152.196c2.275 5.776 6.105 10.856 11.092 14.711s10.949 6.344 17.265 7.208c16.553 1.099 26.726-9.139 30.874-30.645 7.81-42.577 19.749-84.344 35.659-124.746 3.614 69.353 20.439 137.46 49.625 200.879 2.242 4.607 5.736 8.535 10.108 11.361s9.455 4.446 14.705 4.683c1.063 0 2.139 0 3.226 0l0.212-0.069zM590.336 604.115c6.845-0.042 13.665-0.791 20.347-2.233 12.636-2.332 24.586-7.333 35-14.649s19.036-16.765 25.257-27.678c12.652-21.945 18.888-46.817 18.043-71.941 0.338-36.429-9.841-72.222-29.384-103.341-8.136-16.154-20.716-29.814-36.352-39.475-15.636-9.667-33.725-14.956-52.265-15.288-6.84 0.051-13.66 0.788-20.347 2.196-12.657 2.289-24.627 7.276-35.052 14.602-10.421 7.327-19.032 16.809-25.206 27.761-12.543 22.062-18.784 46.966-18.078 72.146-0.38 36.348 9.803 72.066 29.385 103.068 8.216 16.091 20.816 29.699 36.432 39.351 15.621 9.652 33.664 14.982 52.183 15.412l0.036 0.069zM826.547 604.115c6.845-0.042 13.665-0.791 20.347-2.233 12.657-2.284 24.627-7.267 35.046-14.587 10.424-7.321 19.036-16.796 25.211-27.74 12.652-21.945 18.888-46.817 18.043-71.941 0.338-36.429-9.841-72.222-29.384-103.341-8.136-16.154-20.716-29.814-36.352-39.475-15.636-9.667-33.72-14.956-52.265-15.288-6.84 0.051-13.66 0.788-20.342 2.196-12.657 2.289-24.632 7.276-35.052 14.602-10.424 7.327-19.036 16.809-25.211 27.761-12.544 22.062-18.78 46.966-18.074 72.146-0.384 36.348 9.8 72.066 29.384 103.068 8.212 16.091 20.813 29.699 36.434 39.351 15.616 9.652 33.664 14.982 52.178 15.412l0.036 0.069zM592.036 542.893c-7.229-0.792-14.141-3.325-20.106-7.37-5.96-4.044-10.783-9.471-14.029-15.785-9.641-13.032-16.44-27.831-19.988-43.494-1.874-8.757-2.765-17.684-2.657-26.626 0.154-11.392 2.447-22.662 6.769-33.256 5.673-14.223 13.148-21.919 22.226-23.741 5.683-0.502 11.418 0.297 16.722 2.34 5.309 2.043 10.045 5.263 13.829 9.411 15.293 14.561 25.324 33.513 28.605 54.043 1.884 8.882 2.78 17.936 2.662 27.004-0.128 11.381-2.406 22.642-6.738 33.222-5.704 14.223-13.184 21.884-22.292 23.706-1.659 0.322-3.343 0.494-5.038 0.515l0.036 0.034zM828.252 542.893c-7.235-0.792-14.147-3.325-20.106-7.37-5.965-4.044-10.788-9.471-14.029-15.785-9.574-13.036-16.317-27.822-19.814-43.46-1.853-8.76-2.744-17.685-2.657-26.626 0.154-11.392 2.447-22.661 6.769-33.255 5.673-14.223 13.184-21.919 22.226-23.741 5.658-0.476 11.351 0.338 16.625 2.376 5.279 2.043 9.984 5.253 13.752 9.375 15.288 14.556 25.318 33.512 28.605 54.041 1.715 8.906 2.616 17.943 2.693 27.004-0.133 11.383-2.432 22.644-6.774 33.222-5.704 14.223-13.184 21.884-22.292 23.706-1.659 0.322-3.343 0.494-5.033 0.515h0.036z" />
<glyph unicode="&#xe943;" glyph-name="plus" d="M870.4 477.867h-307.2v307.2c0 28.262-22.886 51.2-51.2 51.2s-51.2-22.938-51.2-51.2v-307.2h-307.2c-28.314 0-51.2-22.938-51.2-51.2s22.886-51.2 51.2-51.2h307.2v-307.2c0-28.262 22.886-51.2 51.2-51.2s51.2 22.938 51.2 51.2v307.2h307.2c28.314 0 51.2 22.938 51.2 51.2s-22.886 51.2-51.2 51.2z" />
<glyph unicode="&#xe944;" glyph-name="question-mark" d="M102.4 426.667c0-226.202 183.398-409.6 409.6-409.6s409.6 183.398 409.6 409.6c0 226.202-183.398 409.6-409.6 409.6s-409.6-183.398-409.6-409.6zM460.8 383.045c0 44.851 15.667 76.749 51.2 94.822 19.712 9.984 51.2 29.082 51.2 51.2 0 28.211-22.938 51.2-51.2 51.2s-51.2-22.989-51.2-51.2h-102.4c0 84.685 68.915 153.6 153.6 153.6s153.6-51.2 153.6-153.6c0-62.206-37.791-89.741-67.456-111.355-19.169-13.967-34.944-25.462-34.944-42.245h-102.4v7.578zM563.2 273.067v-102.4h-102.4v102.4h102.4z" />
<glyph unicode="&#xe945;" glyph-name="redo" d="M778.726 631.467c-88.003 79.231-163.456 122.88-266.726 122.88-180.99 0-327.68-146.69-327.68-327.68 0-180.992 146.69-327.68 327.68-327.68 22.62 0 40.96-18.34 40.96-40.96s-18.34-40.96-40.96-40.96c-226.234 0-409.6 183.368-409.6 409.6 0 226.234 183.366 409.6 409.6 409.6 135.040 0 231.163-61.291 327.68-149.39v108.43c0 22.622 18.34 40.96 40.96 40.96s40.96-18.338 40.96-40.96v-204.793c0-5.554-1.106-10.856-3.108-15.686-1.987-4.795-4.92-9.29-8.801-13.197l-0.174-0.174c-3.907-3.884-8.402-6.818-13.199-8.802-4.828-2.002-10.122-3.108-15.677-3.108h-204.8c-22.62 0-40.96 18.338-40.96 40.96s18.34 40.96 40.96 40.96h102.886z" />
<glyph unicode="&#xe946;" glyph-name="reset" d="M870.41 477.867c-28.308 0-51.2 22.938-51.2 51.2 0 28.211-22.938 51.2-51.2 51.2h-490.801l66.202-66.202c20.019-20.019 20.019-52.378 0-72.397s-52.378-20.019-72.397 0l-153.6 153.6c-20.019 20.019-20.019 52.378 0 72.397l153.6 153.6c9.984 9.984 23.091 15.002 36.198 15.002s26.214-5.018 36.198-15.002c20.019-20.019 20.019-52.378 0-72.397l-66.202-66.202h490.801c84.69 0 153.6-68.915 153.6-153.6 0-28.262-22.881-51.2-51.2-51.2zM153.613 375.467c28.314 0 51.2-22.938 51.2-51.2 0-28.211 22.938-51.2 51.2-51.2h490.806l-66.202 66.202c-20.019 20.019-20.019 52.378 0 72.397 9.979 9.984 23.091 15.002 36.193 15.002 13.112 0 26.214-5.018 36.198-15.002l153.6-153.6c20.019-20.019 20.019-52.378 0-72.397l-153.6-153.6c-20.019-20.019-52.378-20.019-72.392 0-20.019 20.019-20.019 52.378 0 72.397l66.202 66.202h-490.806c-84.685 0-153.6 68.915-153.6 153.6 0 28.262 22.886 51.2 51.2 51.2z" />
<glyph unicode="&#xe947;" glyph-name="restore" d="M512 754.347c-103.272 0-178.723-43.649-266.728-122.88h102.888c22.622 0 40.96-18.338 40.96-40.96s-18.338-40.96-40.96-40.96h-204.8c-5.554 0-10.849 1.105-15.679 3.108-4.795 1.984-9.29 4.918-13.197 8.802l-0.174 0.174c-3.884 3.907-6.818 8.402-8.802 13.197-2.002 4.83-3.108 10.132-3.108 15.686v204.793c0 22.622 18.338 40.96 40.96 40.96s40.96-18.338 40.96-40.96v-108.43c96.517 88.099 192.641 149.39 327.68 149.39 226.232 0 409.6-183.366 409.6-409.6 0-226.232-183.368-409.6-409.6-409.6-22.622 0-40.96 18.34-40.96 40.96s18.338 40.96 40.96 40.96c180.992 0 327.68 146.688 327.68 327.68 0 180.99-146.688 327.68-327.68 327.68zM499.2 580.267c21.207 0 38.4-19.649 38.4-43.886v-113.478l65.551-74.921c14.996-17.137 14.996-44.923 0-62.060-14.996-17.142-39.306-17.142-54.303 0l-76.802 87.767c-7.201 8.233-11.247 19.395-11.247 31.032v131.659c0 24.237 17.192 43.886 38.4 43.886z" />
<glyph unicode="&#xe948;" glyph-name="risk" d="M460.821 375.467v102.4c0 28.277 22.923 51.2 51.199 51.2 28.278 0 51.2-22.923 51.2-51.2v-102.4c0-28.278-22.922-51.2-51.2-51.2-28.277 0-51.199 22.922-51.199 51.2zM460.821 170.667c0 28.278 22.923 51.2 51.199 51.2 28.278 0 51.2-22.922 51.2-51.2s-22.922-51.2-51.2-51.2c-28.277 0-51.199 22.922-51.199 51.2zM916.244 91.358l-358.4 718.801c-17.357 34.81-74.291 34.81-91.647 0l-358.4-718.801c-7.936-15.862-7.066-34.76 2.253-49.905s25.805-24.387 43.571-24.387h716.799c17.766 0 34.202 9.242 43.571 24.387 9.318 15.145 10.189 34.043 2.253 49.905z" />
<glyph unicode="&#xe949;" glyph-name="search" d="M409.6 324.267c-113.101 0-204.8 91.699-204.8 204.8s91.699 204.8 204.8 204.8c113.101 0 204.8-91.699 204.8-204.8s-91.699-204.8-204.8-204.8zM906.598 104.465l-246.784 246.784c35.738 50.227 56.986 111.462 56.986 177.818 0 169.626-137.574 307.2-307.2 307.2s-307.2-137.574-307.2-307.2c0-169.626 137.574-307.2 307.2-307.2 66.355 0 127.59 21.248 177.818 56.986l246.784-246.784c9.984-9.984 23.091-15.002 36.198-15.002s26.214 5.018 36.198 15.002c20.019 20.019 20.019 52.378 0 72.397z" />
<glyph unicode="&#xe94a;" glyph-name="secure" d="M476.304 876.733c21.773 14.285 48.906 14.273 70.789 0.197 97.014-62.414 225.372-105.572 313.359-121.106 33.51-5.916 61.071-37.31 61.092-75.484l0.010-23.090c1.244-278.445-19.661-522.172-388.014-686.75-13.839-6.18-29.657-6.18-43.494 0.010-368.045 164.572-388.845 408.294-387.598 686.739l-0.047 22.892c-0.077 38.25 27.509 69.376 61.171 74.672 92.737 14.59 215.615 58.203 312.733 121.919zM312.651 409.663l130.301-131.2c1.676-1.705 3.709-3.062 5.972-3.988s4.706-1.408 7.176-1.408c2.47 0 4.914 0.481 7.177 1.408s4.296 2.284 5.972 3.988l242.086 243.885c3.512 3.574 5.463 8.257 5.463 13.116s-1.951 9.542-5.463 13.116l-26.337 26.271c-1.674 1.708-3.712 3.070-5.98 4.002s-4.716 1.414-7.188 1.414c-2.478 0-4.925-0.481-7.194-1.414-2.263-0.932-4.301-2.295-5.975-4.002l-202.438-204.596-90.936 91.909c-1.676 1.701-3.709 3.059-5.972 3.987s-4.706 1.408-7.177 1.408c-2.47 0-4.913-0.479-7.176-1.408s-4.297-2.286-5.972-3.987l-26.339-26.232c-3.506-3.585-5.451-8.272-5.451-13.136s1.945-9.549 5.451-13.133z" />
<glyph unicode="&#xe94b;" glyph-name="select" d="M512 119.467l-204.8 204.8h409.6l-204.8-204.8zM512 733.867l204.8-204.8h-409.6l204.8 204.8z" />
<glyph unicode="&#xe94c;" glyph-name="settings" d="M511.999 273.067c-84.838 0-153.6 68.762-153.6 153.6s68.762 153.6 153.6 153.6c84.839 0 153.601-68.762 153.601-153.6s-68.762-153.6-153.601-153.6zM894.771 336.862c-71.373 38.605-71.373 141.005 0 179.61 12.39 6.707 21.453 18.227 25.088 31.795 3.635 13.619 1.536 28.109-5.837 40.090l-54.63 88.73c-14.234 23.091-44.032 31.078-67.942 18.176l-22.886-12.442c-68.045-36.813-150.784 12.493-150.784 89.856v12.39c0 28.262-22.886 51.2-51.2 51.2h-109.159c-28.314 0-51.2-22.938-51.2-51.2v-12.39c0-77.363-82.739-126.669-150.784-89.856l-22.886 12.442c-23.91 12.902-53.709 4.915-67.942-18.176l-54.63-88.73c-7.373-11.981-9.472-26.47-5.837-40.090 3.635-13.568 12.698-25.088 25.088-31.795 71.373-38.605 71.373-141.005 0-179.61-12.39-6.707-21.453-18.227-25.088-31.795-3.635-13.619-1.536-28.109 5.837-40.090l54.63-88.73c14.234-23.091 44.032-31.078 67.942-18.176l22.886 12.442c68.045 36.813 150.784-12.493 150.784-89.856v-12.39c0-28.262 22.886-51.2 51.2-51.2h109.159c28.314 0 51.2 22.938 51.2 51.2v12.39c0 77.363 82.739 126.669 150.784 89.856l22.886-12.442c23.91-12.902 53.709-4.915 67.942 18.176l54.63 88.73c7.373 11.981 9.472 26.47 5.837 40.090-3.635 13.568-12.698 25.088-25.088 31.795z" />
<glyph unicode="&#xe94d;" glyph-name="share" d="M768 324.267c-41.318 0-78.694-16.589-106.342-43.213l-253.952 127.027c0.768 6.144 1.894 12.186 1.894 18.586s-1.126 12.442-1.894 18.586l253.952 127.027c27.648-26.624 65.024-43.213 106.342-43.213 84.685 0 153.6 68.915 153.6 153.6s-68.915 153.6-153.6 153.6c-84.685 0-153.6-68.915-153.6-153.6 0-6.4 1.126-12.442 1.894-18.586l-253.952-127.027c-27.648 26.624-65.024 43.213-106.342 43.213-84.685 0-153.6-68.915-153.6-153.6s68.915-153.6 153.6-153.6c41.318 0 78.694 16.589 106.342 43.213l253.952-127.027c-0.768-6.144-1.894-12.186-1.894-18.586 0-84.685 68.915-153.6 153.6-153.6s153.6 68.915 153.6 153.6c0 84.685-68.915 153.6-153.6 153.6z" />
<glyph unicode="&#xe94e;" glyph-name="sort-ascending" d="M388.793 622.042c17.773-17.774 46.589-17.774 64.362-0.002s17.774 46.589 0.001 64.362l-136.529 136.534c-8.535 8.535-20.111 13.33-32.182 13.33s-23.647-4.795-32.182-13.33l-136.534-136.534c-17.773-17.773-17.773-46.589 0-64.362s46.589-17.774 64.363 0l58.836 58.836v-618.299c0-25.134 20.376-45.512 45.512-45.512s45.511 20.378 45.511 45.512v618.306l58.841-58.842zM511.998 517.689c0 25.135 20.375 45.511 45.509 45.511h318.582c25.134 0 45.512-20.376 45.512-45.511s-20.378-45.511-45.512-45.511h-318.582c-25.134 0-45.509 20.376-45.509 45.511zM511.998 335.644c0 25.134 20.375 45.512 45.509 45.512h318.582c25.134 0 45.512-20.378 45.512-45.512s-20.378-45.512-45.512-45.512h-318.582c-25.134 0-45.509 20.378-45.509 45.512zM557.507 199.114c-25.134 0-45.509-20.378-45.509-45.512 0-25.139 20.375-45.512 45.509-45.512h318.582c25.134 0 45.512 20.372 45.512 45.512 0 25.134-20.378 45.512-45.512 45.512h-318.582z" />
<glyph unicode="&#xe94f;" glyph-name="sort-descending" d="M284.445 836.267c25.135 0 45.511-20.376 45.511-45.511l0.001-618.302 58.836 58.839c17.774 17.772 46.589 17.772 64.362 0s17.774-46.592 0-64.364l-136.533-136.535c-8.535-8.535-20.111-13.327-32.182-13.327s-23.646 4.797-32.181 13.332l-136.529 136.53c-17.773 17.777-17.773 46.592 0.001 64.364s46.589 17.772 64.362 0l58.841-58.844v618.307c0 25.135 20.376 45.511 45.511 45.511zM512 699.733c0 25.135 20.378 45.511 45.512 45.511h318.577c25.134 0 45.512-20.376 45.512-45.511s-20.378-45.511-45.512-45.511h-318.577c-25.134 0-45.512 20.376-45.512 45.511zM512 517.689c0 25.135 20.378 45.511 45.512 45.511h318.577c25.134 0 45.512-20.376 45.512-45.511s-20.378-45.511-45.512-45.511h-318.577c-25.134 0-45.512 20.376-45.512 45.511zM557.512 381.155c-25.134 0-45.512-20.378-45.512-45.512s20.378-45.512 45.512-45.512h318.577c25.134 0 45.512 20.378 45.512 45.512s-20.378 45.512-45.512 45.512h-318.577z" />
<glyph unicode="&#xe950;" glyph-name="sort" d="M270.996 821.271c9.266 9.265 22.066 14.996 36.204 14.996s26.938-5.731 36.204-14.996l153.6-153.6c19.993-19.995 19.993-52.413 0-72.408-19.995-19.995-52.413-19.995-72.408 0l-66.196 66.196v-388.392c0-28.278-22.923-51.2-51.2-51.2s-51.2 22.922-51.2 51.2v388.392l-66.196-66.196c-19.995-19.995-52.413-19.995-72.408 0s-19.995 52.413 0 72.408l153.6 153.6zM665.6 580.267c0 28.262 22.938 51.2 51.2 51.2 28.314 0 51.2-22.938 51.2-51.2v-388.352l66.202 66.15c19.968 20.019 52.429 20.019 72.397 0 10.035-9.984 15.002-23.091 15.002-36.25 0-13.056-4.966-26.163-15.002-36.147l-153.6-153.6c-9.216-9.267-22.016-15.002-36.198-15.002-14.131 0-26.931 5.734-36.198 15.002l-153.6 153.6c-9.984 9.984-15.002 23.091-15.002 36.147 0 13.158 5.018 26.266 15.002 36.25 20.019 20.019 52.378 20.019 72.397 0l66.202-66.15v388.352z" />
<glyph unicode="&#xe951;" glyph-name="star-filled" d="M266.227 17.072c-8.479 0-16.916 2.621-24.044 7.782-12.288 8.929-18.678 23.916-16.507 38.989l38.052 266.399-149.341 149.375c-10.854 10.854-14.705 26.828-10.035 41.45s17.121 25.395 32.236 27.893l225.2 37.559 113.542 227.076c7.004 13.967 22.365 23.182 36.866 22.65 15.606-0.082 29.778-9.011 36.618-23.059l108.708-223.307 230.277-41c15.032-2.662 27.32-13.475 31.908-28.016 4.588-14.581 0.696-30.473-10.117-41.245l-149.381-149.375 38.093-266.399c2.13-15.155-4.26-30.223-16.712-39.112-12.411-8.929-28.795-10.117-42.353-3.236l-224.379 113.618-230.485-113.782c-5.734-2.867-11.96-4.26-18.145-4.26z" />
<glyph unicode="&#xe952;" glyph-name="star-outline" d="M343.526 164.733l171.91 84.864 164.792-83.446-28.636 200.289 102.277 102.274-165.606 29.485-77.031 158.233-81.172-162.34-158.857-26.494 101.135-101.157-28.812-201.708zM266.227 17.072c-8.479 0-16.916 2.621-24.044 7.782-12.288 8.929-18.678 23.916-16.507 38.989l38.052 266.399-149.341 149.375c-10.854 10.854-14.705 26.828-10.035 41.45s17.121 25.395 32.236 27.893l225.2 37.559 113.542 227.076c7.004 13.967 22.365 23.182 36.866 22.65 15.606-0.082 29.778-9.011 36.618-23.059l108.708-223.307 230.277-41c15.032-2.662 27.32-13.475 31.908-28.016 4.588-14.581 0.696-30.473-10.117-41.245l-149.381-149.375 38.093-266.399c2.13-15.155-4.26-30.223-16.712-39.112-12.411-8.929-28.795-10.117-42.353-3.236l-224.379 113.618-230.485-113.782c-5.734-2.867-11.96-4.26-18.145-4.26z" />
<glyph unicode="&#xe953;" glyph-name="tick-small" d="M425.732 229.086l-162.918 174.95c-4.383 4.777-6.814 11.023-6.814 17.51 0 6.483 2.431 12.731 6.814 17.509l32.922 34.97c2.095 2.268 4.637 4.078 7.465 5.316s5.882 1.877 8.97 1.877c3.087 0 6.141-0.639 8.97-1.877s5.37-3.047 7.465-5.316l113.664-122.521 253.031 272.741c2.094 2.276 4.639 4.093 7.47 5.336 2.836 1.243 5.893 1.884 8.991 1.884 3.092 0 6.154-0.642 8.986-1.884s5.376-3.060 7.475-5.336l32.922-35.021c4.388-4.765 6.825-11.006 6.825-17.485s-2.437-12.72-6.825-17.485l-302.593-325.119c-2.095-2.268-4.637-4.081-7.465-5.315-2.828-1.239-5.882-1.879-8.97-1.879s-6.142 0.64-8.97 1.879c-2.828 1.234-5.37 3.046-7.465 5.315z" />
<glyph unicode="&#xe954;" glyph-name="tick" d="M373.414 185.689l-153.6 153.6c-20.019 20.019-20.019 52.378 0 72.397s52.378 20.020 72.397 0l114.483-114.483 322.46 367.565c18.432 21.504 50.739 23.962 72.141 5.581 21.504-18.432 24.008-50.688 5.576-72.141l-358.397-409.601c-9.267-10.854-22.682-17.306-36.915-17.869-15.514-0.051-28.57 5.325-38.144 14.95z" />
<glyph unicode="&#xe955;" glyph-name="trophy" d="M304.942 434.519c-28.333 70.12-42.315 146.054-40.988 222.584h-141.847v-57.615c1.894-19.283 7.535-37.914 16.55-54.667s21.202-31.25 35.758-42.538c37.154-34.789 82.219-58.185 130.527-67.764zM901.898 599.487v57.615h-141.798c1.331-76.53-12.652-152.464-40.986-222.584 48.276 9.615 93.307 33.028 130.427 67.816 14.556 11.288 26.742 25.785 35.758 42.538s14.659 35.384 16.553 54.667l0.046-0.053zM972.8 676.29v-76.802c-0.497-30.299-8.433-59.908-22.984-85.788-16.148-29.853-37.161-56.287-62.019-78.018-28.856-24.932-61.235-44.67-95.882-58.458-38.18-15.862-78.495-24.878-119.352-26.696-15.252-21.309-32.927-40.458-52.603-56.98-12.867-11.715-22.912-26.644-29.276-43.5-5.647-17.234-8.371-35.425-8.049-53.704-0.568-19.804 5.422-39.168 16.881-54.605 6.856-7.89 15.273-13.988 24.622-17.833s19.384-5.34 29.348-4.367c26.793 0.338 52.89-9.288 73.923-27.274 10.092-7.798 18.304-18.115 23.941-30.075 5.642-11.96 8.54-25.211 8.458-38.641v-38.426c0.097-2.555-0.297-5.105-1.157-7.485-0.855-2.381-2.161-4.547-3.83-6.354s-3.666-3.22-5.862-4.152c-2.202-0.927-4.552-1.352-6.912-1.249h-460.429c-2.358-0.102-4.711 0.323-6.909 1.249-2.199 0.932-4.195 2.345-5.864 4.152s-2.974 3.973-3.832 6.354c-0.859 2.381-1.252 4.931-1.156 7.485v38.426c-0.091 13.43 2.806 26.685 8.446 38.651 5.64 11.96 13.856 22.272 23.954 30.065 21.053 17.992 47.158 27.638 73.973 27.325 9.96-0.968 19.993 0.527 29.342 4.372s17.769 9.943 24.625 17.828c11.452 15.442 17.439 34.806 16.883 54.605 0.324 18.278-2.404 36.475-8.051 53.704-6.361 16.855-16.408 31.785-29.277 43.5-19.682 16.517-37.356 35.661-52.601 56.98-40.861 1.797-81.176 10.813-119.352 26.696-34.533 13.824-66.803 33.546-95.589 58.407-24.873 21.713-45.889 48.15-62.019 78.018-14.536 25.888-22.467 55.493-22.982 85.788v76.802c-0.124 7.589 1.188 15.126 3.857 22.144s6.637 13.37 11.66 18.662c4.886 5.441 10.749 9.739 17.228 12.631s13.436 4.313 20.442 4.178h159.511v57.562c-0.171 12.628 2.048 25.162 6.521 36.826s11.105 22.211 19.486 30.991c8.094 9.080 17.822 16.266 28.581 21.111s22.323 7.249 33.974 7.062h319.020c11.663 0.179 23.235-2.233 34.002-7.088s20.5-12.049 28.605-21.138c8.387-8.775 15.027-19.32 19.512-30.984 4.48-11.664 6.707-24.199 6.543-36.832v-57.615h159.606c6.994 0.014 13.921-1.473 20.383-4.375s12.324-7.162 17.254-12.534c4.936-5.372 8.832-11.749 11.479-18.763 2.642-7.014 3.978-14.525 3.927-22.102v0.264z" />
<glyph unicode="&#xe956;" glyph-name="undo" d="M245.272 631.467c88.006 79.231 163.456 122.88 266.728 122.88 180.992 0 327.68-146.69 327.68-327.68 0-180.992-146.688-327.68-327.68-327.68-22.622 0-40.96-18.34-40.96-40.96s18.338-40.96 40.96-40.96c226.232 0 409.6 183.368 409.6 409.6 0 226.234-183.368 409.6-409.6 409.6-135.039 0-231.163-61.291-327.68-149.39v108.43c0 22.622-18.338 40.96-40.96 40.96s-40.96-18.338-40.96-40.96v-204.793c0-5.554 1.105-10.856 3.108-15.686 1.984-4.795 4.918-9.29 8.802-13.197l0.174-0.174c3.907-3.884 8.402-6.818 13.197-8.802 4.83-2.002 10.125-3.108 15.679-3.108h204.8c22.622 0 40.96 18.338 40.96 40.96s-18.338 40.96-40.96 40.96h-102.888z" />
<glyph unicode="&#xe957;" glyph-name="unplug" d="M925.978 452.29h97.966l0.026-51.218h-97.454c-7.46-36.593-27.679-69.437-57.134-92.815-29.46-23.383-66.289-35.82-104.079-35.149h-128.036v51.195h-129.578c-6.875 0-13.468 2.698-18.329 7.501-4.861 4.797-7.592 11.31-7.592 18.099s2.731 13.297 7.592 18.099c4.861 4.797 11.454 7.496 18.329 7.496h129.578v102.364h-129.578c-3.404 0-6.775 0.662-9.92 1.948s-6.002 3.172-8.409 5.549c-2.407 2.377-4.316 5.198-5.619 8.304s-1.973 6.434-1.973 9.796c0 3.361 0.67 6.69 1.973 9.796s3.212 5.927 5.619 8.305c2.407 2.377 5.264 4.262 8.409 5.549s6.516 1.949 9.92 1.949h129.578v51.194h127.652c0.778 0.011 1.562 0.017 2.345 0.017 36.91 0 72.745-12.451 101.54-35.33 29.404-23.362 49.628-56.131 57.175-92.647zM0 452.286v-51.193h100.389c7.45-36.541 27.628-69.35 57.028-92.728 29.4-23.373 66.164-35.84 103.904-35.231h124.019v307.113h-125.126c-37.592 0.473-74.165-12.065-103.373-35.439s-49.208-56.108-56.529-92.522h-100.312z" />
<glyph unicode="&#xe958;" glyph-name="upload" d="M322.202 595.493c9.984-9.988 23.091-15.008 36.198-15.008s26.214 5.020 36.198 15.008l66.202 66.23v-337.349c0-28.324 22.938-51.22 51.199-51.22s51.2 22.897 51.2 51.22v337.349l66.202-66.23c20.019-20.028 52.378-20.028 72.397 0s20.019 52.4 0 72.428l-153.6 153.666c-4.454 4.456-9.728 7.632-15.258 10.142-1.393 0.63-2.79 1.062-4.219 1.506-0.195 0.061-0.394 0.122-0.594 0.185-4.301 1.485-8.653 2.305-13.158 2.561-0.466 0.030-0.916 0.069-1.372 0.107-1.096 0.093-2.179 0.185-3.338 0.149-5.53-0.154-11.059-1.076-16.384-3.176-0.205-0.077-0.422-0.115-0.64-0.154s-0.435-0.077-0.64-0.154l-0.205-0.051c-5.734-2.407-10.65-5.942-15.053-10.039-0.23-0.231-0.499-0.385-0.768-0.538s-0.538-0.307-0.768-0.538l-153.6-153.666c-20.019-20.027-20.019-52.4 0-72.428zM179.2 477.867c-42.416 0-76.8-34.384-76.8-76.8v-307.2c0-42.414 34.384-76.8 76.8-76.8h665.6c42.414 0 76.8 34.386 76.8 76.8v307.2c0 42.416-34.386 76.8-76.8 76.8h-179.2v-102.4h153.6v-256h-614.4v256h153.6v102.4h-179.2z" />
<glyph unicode="&#xe959;" glyph-name="vertical-dots" d="M512 631.467c-56.474 0-102.4 45.926-102.4 102.4s45.926 102.4 102.4 102.4c56.474 0 102.4-45.926 102.4-102.4s-45.926-102.4-102.4-102.4zM512 529.067c56.474 0 102.4-45.926 102.4-102.4s-45.926-102.4-102.4-102.4c-56.474 0-102.4 45.926-102.4 102.4s45.926 102.4 102.4 102.4zM512 221.867c56.474 0 102.4-45.926 102.4-102.4s-45.926-102.4-102.4-102.4c-56.474 0-102.4 45.926-102.4 102.4s45.926 102.4 102.4 102.4z" />
<glyph unicode="&#xe95a;" glyph-name="view" d="M917.939 445.713c-4.71 11.725-118.63 288.154-405.965 288.154s-401.254-276.429-405.965-288.154c-4.813-12.237-4.813-25.856 0-38.093 4.71-11.725 118.63-288.154 405.965-288.154s401.254 276.429 405.965 288.154c4.813 12.237 4.813 25.856 0 38.093zM511.974 221.867c-113.101 0-204.8 91.699-204.8 204.8s91.699 204.8 204.8 204.8c113.152 0 204.8-91.699 204.8-204.8s-91.648-204.8-204.8-204.8zM511.974 529.067c-56.525 0-102.4-45.875-102.4-102.4s45.875-102.4 102.4-102.4c56.576 0 102.4 45.875 102.4 102.4s-45.824 102.4-102.4 102.4z" />
<glyph unicode="&#xe95b;" glyph-name="compress" d="M344.746 593.921h-191.146v-95.574h286.72v286.72h-95.574v-191.146zM679.255 593.921v191.146h-95.575v-286.72h286.72l-0.256 95.574h-190.889zM583.68 68.267h95.575v191.145h191.145v95.575h-286.72v-286.72zM153.6 259.412h191.146v-191.145h95.574v286.72h-286.72v-95.575z" />
<glyph unicode="&#xe95c;" glyph-name="watermark" d="M889.016 803.685h-754.035c-46.080 0-83.782-37.702-83.782-83.782v-586.474c0-46.080 37.702-83.779 83.782-83.779h754.035c46.080 0 83.784 37.699 83.784 83.779v586.474c0 46.080-37.704 83.782-83.784 83.782zM847.13 133.429h-293.238c-23.040 0-41.892 18.852-41.892 41.892v167.562c0 23.040 18.852 41.892 41.892 41.892h293.238c23.040 0 41.887-18.852 41.887-41.892v-167.562c0-23.040-18.847-41.892-41.887-41.892z" />
<glyph unicode="&#xe95d;" glyph-name="file-blank" d="M102.4 768.001c0 37.703 30.564 68.266 68.266 68.266h497.253c20.372 0 39.905-8.092 54.308-22.494l176.881-176.878c14.403-14.403 22.492-33.937 22.492-54.306v-497.257c0-37.699-30.566-68.265-68.265-68.265h-682.669c-37.703 0-68.266 30.566-68.266 68.265v682.669zM677.12 787.684l1.275-198.505 198.513-0.069-199.788 198.575z" />
<glyph unicode="&#xe95e;" glyph-name="file-image" d="M102.4 768.001c0 37.703 30.564 68.266 68.266 68.266h497.253c20.372 0 39.905-8.092 54.308-22.494l176.881-176.878c14.403-14.403 22.492-33.937 22.492-54.306v-497.257c0-37.699-30.566-68.265-68.265-68.265h-682.669c-37.703 0-68.266 30.566-68.266 68.265v682.669zM489.245 585.956c0 50.062-40.96 91.022-91.022 91.022s-91.022-40.96-91.022-91.022c0-50.062 40.96-91.022 91.022-91.022s91.022 40.96 91.022 91.022zM216.041 108.090h591.736c17.295 0 28.216 18.657 20.024 34.13l-183.818 319.080c-8.648 14.109-28.672 14.564-38.231 0.91l-139.263-217.591-74.183 84.244c-9.102 9.103-24.121 9.103-32.768-0.456l-161.701-184.366c-10.922-15.017-0.455-35.953 18.205-35.953zM677.12 787.684l1.275-198.505 198.513-0.069-199.788 198.575z" />
<glyph unicode="&#xe95f;" glyph-name="file-video" d="M170.666 836.267c-37.703 0-68.266-30.564-68.266-68.266v-682.669c0-37.699 30.564-68.265 68.266-68.265h682.669c37.699 0 68.265 30.566 68.265 68.265v497.257c0 20.368-8.090 39.903-22.492 54.306l-176.881 176.878c-14.403 14.403-33.935 22.494-54.308 22.494h-497.253zM678.395 589.179l-1.275 198.505 199.788-198.575-198.513 0.069zM702.316 401.589l-298.668-175.539c-4.749-2.78-10.065-4.183-15.382-4.183-5.077 0-10.154 1.26-14.724 3.804-9.348 5.207-15.142 14.92-15.142 25.452v351.074c0 10.532 5.794 20.246 15.142 25.453 9.348 5.237 20.877 5.061 30.106-0.38l298.668-175.537c8.991-5.266 14.484-14.774 14.484-25.071 0-10.301-5.494-19.809-14.484-25.073z" />
<glyph unicode="&#xe960;" glyph-name="file-zip" d="M496.98 331.962c-11.298-5.361-23.705-7.967-36.205-7.603-12.51-0.358-24.901 2.232-36.205 7.603-9.997 5.069-14.995 11.069-14.995 17.992 0 6.927 4.999 12.923 14.995 17.992 11.298 5.361 23.705 7.967 36.205 7.608 12.499 0.358 24.906-2.248 36.205-7.608 9.997-5.069 14.995-11.064 14.995-17.992 0-6.922-4.999-12.923-14.995-17.992zM170.666 836.267c-37.703 0-68.266-30.564-68.266-68.266v-682.669c0-37.699 30.564-68.265 68.266-68.265h682.669c37.699 0 68.265 30.566 68.265 68.265v497.257c0 20.368-8.090 39.903-22.492 54.306l-176.881 176.878c-14.403 14.403-33.935 22.494-54.308 22.494h-497.253zM511.976 836.267v-51.1h-51.176v51.076l51.176 0.024zM678.395 589.179l-1.275 198.505 199.788-198.575-198.513 0.069zM460.8 785.047v-51.195h-51.2v51.195h51.2zM511.976 733.852v-51.172h-51.176v51.172h51.176zM460.8 682.68v-51.196h-51.2v51.172l51.2 0.024zM460.8 631.484h51.176v-51.172l-51.176-0.024v51.196zM559.985 370.757c2.074-6.743 3.154-13.747 3.215-20.803 0.036-10.834-2.586-21.514-7.639-31.104-5.053-9.585-12.385-17.787-21.345-23.88-21.391-15.176-47.206-22.845-73.416-21.811-26.203-1.044-52.013 6.625-73.393 21.811-8.953 6.103-16.277 14.305-21.333 23.89s-7.69 20.26-7.674 31.094c0.062 7.055 1.145 14.060 3.215 20.803 5.598 16.809 21.594 69.586 47.985 158.335v51.172l51.2 0.024-0.024-51.196h31.646c5.637 0.076 11.134-1.759 15.595-5.206 4.479-3.399 7.705-8.18 9.19-13.602l-0.026 0.048 42.803-139.575z" />
<glyph unicode="&#xe961;" glyph-name="spinner" d="M394.066 833.666c-68.679-21.66-130.59-60.803-179.697-113.611s-83.735-117.48-100.506-187.709c-16.772-70.23-15.115-143.618 4.809-213.015s57.435-132.429 108.875-182.953c51.44-50.524 115.055-86.815 184.64-105.334 69.585-18.524 142.77-18.637 212.412-0.338s133.371 54.39 184.97 104.75c51.594 50.36 89.303 113.275 109.445 182.61 2.248 7.173 3.041 14.72 2.34 22.205-0.701 7.48-2.888 14.751-6.426 21.376s-8.361 12.477-14.182 17.208c-5.821 4.736-12.529 8.253-19.722 10.353-7.199 2.099-14.74 2.739-22.185 1.874-7.444-0.86-14.638-3.205-21.171-6.897-6.528-3.686-12.257-8.648-16.85-14.587s-7.962-12.739-9.902-19.999c-14.71-50.58-42.235-96.481-79.887-133.217-37.658-36.736-84.157-63.063-134.979-76.406-50.816-13.343-104.21-13.256-154.981 0.261s-97.185 39.997-134.717 76.867c-37.532 36.864-64.902 82.852-79.441 133.489-14.539 50.632-15.752 104.18-3.521 155.424s37.491 98.434 73.314 136.971c35.824 38.537 80.991 67.106 131.097 82.922 7.054 2.225 13.601 5.821 19.269 10.585s10.345 10.599 13.764 17.176c3.419 6.576 5.513 13.764 6.163 21.152s-0.157 14.833-2.375 21.908c-2.218 7.075-5.804 13.643-10.552 19.329s-10.567 10.377-17.122 13.806c-6.556 3.43-13.721 5.531-21.087 6.183s-14.787-0.158-21.84-2.382h0.045z" />
<glyph unicode="&#xe962;" glyph-name="logo-icon" d="M376.294 172.362c-40.17 26.839-71.48 64.983-89.971 109.614s-23.331 93.747-13.91 141.128c9.422 47.382 32.682 90.907 66.84 125.069s77.68 57.429 125.061 66.857c47.381 9.428 96.495 4.594 141.126-13.891 44.636-18.484 82.785-49.789 109.629-89.955 26.839-40.166 41.17-87.39 41.175-135.702-0.072-64.758-25.825-126.843-71.613-172.636-45.788-45.798-107.873-71.557-172.631-71.639-48.31-0.005-95.536 14.321-135.706 41.155zM660.25 386.557c-0.292 21.478-6.559 42.455-18.104 60.572-11.802 14.85-19.261 32.675-21.56 51.504-0.256 10.053 3.482 19.797 10.394 27.102 6.907 7.305 16.43 11.575 26.481 11.876 0.686 0 1.352-0.058 2.012-0.116l0.829-0.068c-23.45 21.475-51.277 37.602-81.572 47.265-30.29 9.663-62.321 12.632-93.87 8.701-31.551-3.931-61.873-14.667-88.867-31.466s-50.018-39.262-67.479-65.834c5.16-0.15 10.020-0.267 14.129-0.267 22.963 0 58.451 2.789 58.451 2.789 2.398 0.186 4.772-0.588 6.6-2.153s2.959-3.791 3.145-6.189c0.186-2.398-0.588-4.772-2.152-6.6s-3.791-2.958-6.189-3.145c-0.136-0.016-11.967-1.406-25.134-2.087l79.978-237.881 48.063 144.143-34.136 93.738c-11.824 0.701-23.030 2.087-23.030 2.087-2.398 0.184-4.625 1.313-6.192 3.139s-2.342 4.199-2.159 6.598c0.184 2.398 1.313 4.625 3.139 6.192s4.199 2.342 6.598 2.159c0 0 36.273-2.789 57.85-2.789 22.963 0 58.449 2.789 58.449 2.789 2.401 0.186 4.772-0.588 6.6-2.153s2.959-3.791 3.149-6.189c0.184-2.398-0.589-4.772-2.156-6.6-1.562-1.827-3.789-2.958-6.19-3.145 0 0-11.924-1.402-25.134-2.087l79.38-236.074 21.908 73.196c8.832 22.779 14.474 46.669 16.768 70.994zM292.39 375.467c-0.007-41.242 11.598-81.654 33.486-116.608s53.175-63.037 90.28-81.039l-104.761 287.028c-12.556-28.124-19.032-58.584-19.005-89.38zM449.958 164.81c44.238-13.025 91.451-11.796 134.956 3.507-0.609 0.957-1.137 1.971-1.572 3.021l-67.502 184.94-65.882-191.468zM704.691 480.846c1.014-7.495 1.521-15.049 1.516-22.612-0.374-27.059-6.047-53.783-16.696-78.661l-67.123-193.905c49.475 28.78 85.76 75.735 101.13 130.867 15.375 55.132 8.617 114.085-18.826 164.311zM921.6 668.445c0 42.416-34.386 76.8-76.8 76.8h-300.989c-20.367 0-39.902 8.092-54.305 22.494l-46.034 46.034c-14.403 14.403-33.937 22.494-54.306 22.494h-209.966c-42.416 0-76.8-34.384-76.8-76.8v-665.6c0-42.414 34.384-76.8 76.8-76.8h665.6c42.414 0 76.8 34.386 76.8 76.8v574.578zM369.773 588.322c42.099 28.13 91.595 43.145 142.227 43.145 67.871-0.075 132.936-27.068 180.931-75.058s74.988-113.056 75.069-180.927c0.005-50.632-15.007-100.127-43.136-142.228s-68.106-74.916-114.888-94.295c-46.776-19.379-98.249-24.453-147.909-14.577s-95.277 34.258-131.081 70.062c-35.804 35.799-60.187 81.413-70.066 131.072s-4.811 101.135 14.565 147.914c19.376 46.779 52.188 86.761 94.287 114.892z" />
<glyph unicode="&#xe963;" glyph-name="database-tools" d="M795.945 707.047v0.063l-0.005 0.136v0.309l-0.026 0.766c-0.020 0.575-0.056 1.279-0.123 2.103-0.128 1.648-0.364 3.78-0.783 6.327-0.85 5.094-2.463 11.86-5.519 19.715-6.164 15.854-17.987 35.565-40.192 54.598-44.227 37.911-126.715 70.802-280.605 70.802s-236.377-32.892-280.606-70.802c-22.205-19.034-34.026-38.744-40.192-54.598-3.055-7.855-4.667-14.621-5.517-19.715-0.424-2.547-0.658-4.679-0.786-6.327-0.064-0.824-0.102-1.528-0.123-2.103l-0.022-0.766-0.004-0.309-0.001-0.136v-0.063c0 0-0.001-0.060 25.599-0.060h-25.6v-517.115h25.6c-25.6 0-25.599-0.061-25.599-0.061v-0.061l0.001-0.138 0.004-0.307 0.022-0.768c0.022-0.573 0.059-1.28 0.123-2.104 0.128-1.644 0.362-3.779 0.786-6.323 0.849-5.094 2.462-11.863 5.517-19.717 6.166-15.852 17.987-35.564 40.192-54.6 44.229-37.908 126.716-70.799 280.606-70.799 14.138 0 25.6 11.459 25.6 25.6 0 14.136-11.462 25.6-25.6 25.6-147.763 0-216.101 31.744-247.285 58.476-15.501 13.286-22.533 25.897-25.794 34.284-1.659 4.265-2.402 7.598-2.732 9.574-0.156 0.932-0.219 1.562-0.241 1.833v170.22c45.257-36.296 127.295-67.026 276.052-67.026 153.89 0 236.379 32.891 280.605 70.799 22.205 19.036 34.028 38.743 40.192 54.6 3.057 7.854 4.669 14.62 5.519 19.714 0.42 2.547 0.655 4.679 0.783 6.327 0.067 0.824 0.102 1.528 0.123 2.103l0.026 0.766v0.309l0.005 0.136v0.063c0 0 0 0.060-25.6 0.060h25.6v258.558h-25.6c25.6 0 25.6 0.060 25.6 0.060zM192.881 705.641c-0.094 0.564-0.154 1.016-0.192 1.346 0.038 0.33 0.098 0.782 0.192 1.347 0.329 1.976 1.073 5.309 2.732 9.575 3.261 8.386 10.293 20.995 25.794 34.281 31.184 26.729 99.523 58.477 247.285 58.477s216.103-31.748 247.284-58.477c15.503-13.286 22.533-25.896 25.795-34.281 1.659-4.265 2.401-7.599 2.734-9.575 0.092-0.564 0.154-1.016 0.189-1.347-0.036-0.33-0.097-0.782-0.189-1.346-0.333-1.976-1.075-5.309-2.734-9.575-3.261-8.386-10.291-20.995-25.795-34.281-31.181-26.729-99.523-58.477-247.284-58.477-147.763 0-216.101 31.748-247.285 58.477-15.501 13.286-22.533 25.896-25.794 34.281-1.659 4.265-2.402 7.599-2.732 9.575zM468.691 552.109c148.755 0 230.798 30.735 276.054 67.027v-170.216c-0.026-0.273-0.087-0.901-0.241-1.837-0.333-1.976-1.075-5.309-2.734-9.575-3.261-8.386-10.291-20.994-25.795-34.28-31.181-26.732-99.523-58.476-247.284-58.476-147.763 0-216.101 31.744-247.285 58.476-15.501 13.286-22.533 25.894-25.794 34.28-1.659 4.265-2.402 7.599-2.732 9.575-0.156 0.935-0.219 1.564-0.241 1.837v170.216c45.257-36.293 127.295-67.027 276.052-67.027zM882.13 276.057c0 14.136-11.464 25.6-25.6 25.6-14.141 0-25.6-11.464-25.6-25.6v-156.59c0-14.136 11.459-25.6 25.6-25.6 14.136 0 25.6 11.464 25.6 25.6v156.59zM875.904 0.319c9.508 10.46 8.74 26.655-1.72 36.163-10.465 9.513-26.655 8.74-36.168-1.72l-0.43-0.476c-9.508-10.46-8.74-26.65 1.72-36.163 10.465-9.508 26.655-8.74 36.163 1.725l0.435 0.471z" />
<glyph unicode="&#xe964;" glyph-name="system-status" d="M798.141 213.962c-9.436-13.384-7.967-32.113 4.48-42.68 12.365-10.491 30.874-8.96 40.397 4.219 16.553 22.917 30.74 47.488 42.337 73.329 6.717 14.976-1.219 32.154-16.492 37.77-15.15 5.576-31.79-2.335-38.63-17.101-9.016-19.456-19.758-38.047-32.092-55.537zM600.581 76.787c-16.179-4.183-27.075-20.173-23.644-36.705 3.251-15.677 18.222-26.045 33.597-22.216 27.612 6.871 54.441 16.65 80.041 29.179 14.331 7.009 19.205 24.852 11.52 38.963-7.798 14.316-25.569 19.384-40.269 12.611-19.738-9.093-40.233-16.399-61.245-21.832zM361.894 98.526c-14.608 6.84-32.345 2.063-40.397-12.042-8.147-14.269-3.281-32.625 11.421-39.716 25.554-12.324 52.289-21.97 79.786-28.785 15.657-3.876 30.794 6.979 33.594 23.040 2.82 16.174-7.941 31.462-23.657 35.564-20.862 5.437-41.195 12.78-60.747 21.939zM193.764 269.493c-6.839 14.771-23.481 22.682-38.63 17.106-15.273-5.622-23.21-22.794-16.494-37.77 11.588-25.841 25.768-50.406 42.315-73.318 9.52-13.184 28.033-14.72 40.394-4.229 12.447 10.568 13.915 29.297 4.483 42.68-12.326 17.49-23.059 36.081-32.068 55.532zM512 242.787c-8.7 0-17.205-2.611-24.44-7.501s-12.872-11.843-16.202-19.978c-3.33-8.131-4.201-17.080-2.504-25.718 1.698-8.632 5.887-16.563 12.040-22.789s13.99-10.465 22.523-12.18c8.534-1.72 17.378-0.835 25.417 2.534s14.909 9.073 19.743 16.389c4.833 7.322 7.414 15.928 7.414 24.73 0 11.807-4.634 23.127-12.887 31.478-8.248 8.346-19.436 13.036-31.104 13.036zM482.673 628.549c0 16.389 13.13 29.674 29.327 29.674 16.195 0 29.327-13.286 29.327-29.674v-267.065c0-16.389-13.133-29.676-29.327-29.676-16.197 0-29.327 13.286-29.327 29.676v267.065zM921.528 450.482c1.157-16.347-12.083-29.651-28.278-29.651-16.2 0-29.199 13.311-30.551 29.643-6.897 83.584-42.793 162.393-101.852 222.15-65.997 66.78-155.51 104.296-248.847 104.296s-182.849-37.516-248.846-104.296c-59.058-59.757-94.958-138.566-101.855-222.15-1.348-16.332-14.351-29.643-30.547-29.643s-29.436 13.305-28.281 29.651c7.022 99.343 49.147 193.216 119.209 264.107 76.998 77.91 181.429 121.678 290.321 121.678s213.325-43.769 290.319-121.678c70.062-70.891 112.189-164.764 119.209-264.107z" />
<glyph unicode="&#xe965;" glyph-name="import-export" d="M892.344 221.867c-16.159 0-29.261-13.097-29.261-29.256v-69.489c0-10.071-8.207-18.217-18.284-18.14l-665.6-0.143c-10.099 0-18.286 8.187-18.286 18.284v69.489c0 16.159-13.099 29.256-29.257 29.256s-29.257-13.097-29.257-29.256v-87.634c0-0.061 0.066-0.097 0.117-0.067s0.117-0.005 0.117-0.067c-0.009-7.629 1.477-15.191 4.374-22.252 2.915-7.107 7.201-13.563 12.613-19.011s11.845-9.779 18.93-12.739c7.085-2.959 14.685-4.495 22.364-4.521h702.169c15.519 0 30.403 6.164 41.38 17.142 10.972 10.972 17.137 25.856 17.137 41.375v87.772c0 16.159-13.097 29.256-29.256 29.256zM843.064 454.002c-11.489 11.492-30.182 11.296-41.431-0.436l-79.59-83.014c-0.573-0.599-1.367-0.937-2.196-0.937-1.684 0-3.046 1.362-3.046 3.046v383.149c0 16.158-13.097 29.257-29.256 29.257s-29.261-13.099-29.261-29.257v-382.785c0-1.884-1.526-3.41-3.41-3.41-0.932 0-1.823 0.384-2.463 1.055l-78.986 82.815c-11.223 11.767-29.932 11.988-41.431 0.49-11.121-11.119-11.331-29.080-0.481-40.457l127.887-134.129c1.69-1.772 3.548-3.384 5.54-4.808 13.522-9.656 31.683-9.656 45.204 0 1.997 1.423 3.85 3.036 5.54 4.808l127.862 134.098c10.865 11.397 10.655 29.381-0.481 40.514zM173.621 640.703c11.492-11.492 30.185-11.296 41.433 0.436l79.59 83.013c0.574 0.599 1.368 0.937 2.198 0.937 1.681 0 3.044-1.363 3.044-3.044v-383.151c0-16.159 13.099-29.256 29.257-29.256s29.257 13.097 29.257 29.256v382.786c0 1.883 1.526 3.409 3.41 3.409 0.932 0 1.824-0.381 2.467-1.056l78.984-82.813c11.223-11.767 29.932-11.988 41.43-0.49 11.119 11.119 11.333 29.079 0.482 40.458l-127.888 134.127c-1.691 1.774-3.547 3.384-5.541 4.808-13.52 9.657-31.683 9.657-45.203 0-1.994-1.424-3.85-3.035-5.541-4.809l-127.861-134.098c-10.865-11.396-10.651-29.379 0.482-40.513z" />
<glyph unicode="&#xe966;" glyph-name="general-settings" d="M514.56 605.867c-99.84 0-179.2-79.36-179.2-179.2s79.36-179.2 179.2-179.2c99.84 0 179.2 79.36 179.2 179.2s-79.36 179.2-179.2 179.2zM514.56 298.667c-71.68 0-128 56.32-128 128s56.32 128 128 128c71.68 0 128-56.32 128-128s-56.32-128-128-128zM890.88 511.147l-71.68 23.040-15.36 38.4 35.84 66.56c7.68 15.36 5.12 35.84-7.68 48.64l-61.44 61.44c-12.8 12.8-33.28 15.36-48.64 7.68l-66.56-35.84-38.4 15.36-23.040 71.68c-5.12 15.36-20.48 28.16-38.4 28.16h-87.040c-17.92 0-33.28-12.8-35.84-30.72l-23.040-71.68c-15.36-2.56-28.16-7.68-40.96-15.36l-66.56 35.84c-15.36 7.68-35.84 5.12-48.64-7.68l-61.44-61.44c-12.8-12.8-15.36-33.28-7.68-48.64l33.28-64c-5.12-12.8-10.24-28.16-15.36-40.96l-71.68-23.040c-15.36-5.12-28.16-20.48-28.16-38.4v-87.040c0-17.92 12.8-33.28 30.72-38.4l71.68-23.040 15.36-38.4-35.84-66.56c-7.68-15.36-5.12-35.84 7.68-48.64l61.44-61.44c12.8-12.8 33.28-15.36 48.64-7.68l66.56 35.84 38.4-15.36 23.040-74.24c5.12-15.36 20.48-28.16 38.4-28.16h87.040c17.92 0 33.28 12.8 38.4 28.16l23.040 74.24 38.4 15.36 66.56-35.84c15.36-7.68 35.84-5.12 48.64 7.68l61.44 61.44c12.8 12.8 15.36 33.28 7.68 48.64l-35.84 66.56 15.36 38.4 74.24 23.040c15.36 5.12 28.16 20.48 28.16 38.4v87.040c0 17.92-12.8 35.84-30.72 40.96zM870.4 390.827l-92.16-28.16-2.56-12.8-23.040-53.76-7.68-12.8 46.080-84.48-51.2-51.2-84.48 46.080-12.8-7.68c-17.92-10.24-35.84-17.92-53.76-23.040l-12.8-2.56-28.16-92.16h-71.68l-28.16 92.16-12.8 2.56-53.76 23.040-12.8 7.68-84.48-46.080-51.2 51.2 46.080 84.48-7.68 12.8c-10.24 17.92-17.92 35.84-23.040 53.76l-2.56 12.8-92.16 28.16v71.68l87.040 25.6 5.12 12.8c5.12 20.48 12.8 38.4 23.040 56.32l7.68 12.8-43.52 84.48 51.2 51.2 81.92-46.080 12.8 7.68c17.92 10.24 35.84 17.92 56.32 23.040l12.8 5.12 28.16 89.6h71.68l28.16-89.6 12.8-5.12c17.92-5.12 35.84-12.8 53.76-23.040l12.8-7.68 84.48 46.080 51.2-51.2-46.080-84.48 7.68-12.8c10.24-17.92 17.92-35.84 23.040-53.76l2.56-12.8 92.16-28.16v-71.68z" />
<glyph unicode="&#xe967;" glyph-name="module-all" d="M102.4 748.495c0 23.279 9.247 45.604 25.708 62.064s38.786 25.708 62.064 25.708h175.543c23.278 0 45.603-9.247 62.064-25.708s25.708-38.786 25.708-62.064v-175.543c0-23.278-9.247-45.603-25.708-62.064s-38.786-25.708-62.064-25.708h-175.543c-23.279 0-45.604 9.247-62.064 25.708s-25.708 38.786-25.708 62.064v175.543zM190.172 777.753c-7.76 0-15.201-3.082-20.688-8.569s-8.569-12.929-8.569-20.688v-175.543c0-7.759 3.082-15.201 8.569-20.688s12.929-8.569 20.688-8.569h175.543c7.759 0 15.201 3.083 20.688 8.569s8.569 12.929 8.569 20.688v175.543c0 7.76-3.083 15.201-8.569 20.688s-12.929 8.569-20.688 8.569h-175.543zM570.516 748.495c0 23.279 9.247 45.604 25.708 62.064s38.784 25.708 62.060 25.708h175.544c23.281 0 45.604-9.247 62.065-25.708s25.708-38.786 25.708-62.064v-175.543c0-23.278-9.247-45.603-25.708-62.064s-38.784-25.708-62.065-25.708h-175.544c-23.276 0-45.599 9.247-62.060 25.708s-25.708 38.786-25.708 62.064v175.543zM658.284 777.753c-7.757 0-15.201-3.082-20.685-8.569-5.489-5.487-8.571-12.929-8.571-20.688v-175.543c0-7.759 3.082-15.201 8.571-20.688 5.484-5.487 12.928-8.569 20.685-8.569h175.544c7.762 0 15.201 3.083 20.69 8.569 5.484 5.487 8.566 12.929 8.566 20.688v175.543c0 7.76-3.082 15.201-8.566 20.688-5.489 5.487-12.928 8.569-20.69 8.569h-175.544zM102.4 280.383c0 23.276 9.247 45.599 25.708 62.060s38.786 25.708 62.064 25.708h175.543c23.278 0 45.603-9.247 62.064-25.708s25.708-38.784 25.708-62.060v-175.544c0-23.281-9.247-45.604-25.708-62.065s-38.786-25.708-62.064-25.708h-175.543c-23.279 0-45.604 9.247-62.064 25.708s-25.708 38.784-25.708 62.065v175.544zM190.172 309.639c-7.76 0-15.201-3.082-20.688-8.571-5.487-5.484-8.569-12.928-8.569-20.685v-175.544c0-7.762 3.082-15.201 8.569-20.69 5.487-5.484 12.929-8.566 20.688-8.566h175.543c7.759 0 15.201 3.082 20.688 8.566 5.487 5.489 8.569 12.928 8.569 20.69v175.544c0 7.757-3.083 15.201-8.569 20.685-5.487 5.489-12.929 8.571-20.688 8.571h-175.543zM570.516 280.383c0 23.276 9.247 45.599 25.708 62.060s38.784 25.708 62.060 25.708h175.544c23.281 0 45.604-9.247 62.065-25.708s25.708-38.784 25.708-62.060v-175.544c0-23.281-9.247-45.604-25.708-62.065s-38.784-25.708-62.065-25.708h-175.544c-23.276 0-45.599 9.247-62.060 25.708s-25.708 38.784-25.708 62.065v175.544zM658.284 309.639c-7.757 0-15.201-3.082-20.685-8.571-5.489-5.484-8.571-12.928-8.571-20.685v-175.544c0-7.762 3.082-15.201 8.571-20.69 5.484-5.484 12.928-8.566 20.685-8.566h175.544c7.762 0 15.201 3.082 20.69 8.566 5.484 5.489 8.566 12.928 8.566 20.69v175.544c0 7.757-3.082 15.201-8.566 20.685-5.489 5.489-12.928 8.571-20.69 8.571h-175.544z" />
<glyph unicode="&#xe968;" glyph-name="sidebar-affiliate" d="M764.6 276.666c-19.86-0.005-39.455-4.572-57.262-13.358-17.812-8.786-33.362-21.545-45.45-37.299l-279.683 158.73c9.4 27.264 9.4 56.895 0 84.163l279.647 158.73c19.517-25.331 47.713-42.549 79.16-48.34 31.452-5.792 63.928 0.25 91.192 16.966 27.259 16.715 47.375 42.921 56.479 73.576 9.098 30.655 6.543 63.593-7.183 92.476-13.722 28.883-37.642 51.671-67.154 63.978-29.517 12.307-62.541 13.265-92.718 2.689s-55.378-31.94-70.748-59.979c-15.375-28.039-19.84-60.773-12.529-91.905l-284.394-161.462c-17.806 18.979-40.906 32.167-66.301 37.853s-51.914 3.607-76.113-5.968c-24.199-9.575-44.961-26.203-59.591-47.725s-22.453-46.945-22.453-72.97c0-26.024 7.823-51.445 22.453-72.97s35.393-38.149 59.591-47.724c24.199-9.574 50.717-11.653 76.113-5.97 25.395 5.688 48.495 18.872 66.301 37.852l284.394-161.428c-6.17-26.23-4.019-53.734 6.149-78.689 10.168-24.96 27.848-46.131 50.596-60.58 22.748-14.454 49.423-21.468 76.339-20.070 26.911 1.398 52.721 11.136 73.846 27.868 21.13 16.727 36.526 39.619 44.052 65.495s6.815 53.453-2.038 78.904c-8.852 25.457-25.411 47.519-47.37 63.135-21.965 15.621-48.241 24.013-75.192 24.023h-0.133zM764.6 781.648c14.858 0 29.389-4.407 41.748-12.664 12.355-8.257 21.985-19.994 27.674-33.725s7.178-28.84 4.28-43.418c-2.903-14.577-10.061-27.966-20.567-38.476-10.511-10.51-23.9-17.667-38.477-20.566s-29.686-1.412-43.418 4.276c-13.732 5.687-25.467 15.319-33.725 27.677s-12.667 26.886-12.667 41.749c0 9.868 1.946 19.64 5.724 28.757 3.773 9.117 9.308 17.401 16.287 24.379 14.095 14.093 33.208 22.010 53.14 22.010zM259.614 351.741c-14.862 0-29.391 4.408-41.749 12.667-12.358 8.253-21.989 19.994-27.677 33.725-5.688 13.727-7.176 28.838-4.276 43.416s10.057 27.967 20.566 38.476c10.509 10.509 23.899 17.667 38.476 20.566s29.686 1.411 43.418-4.276c13.731-5.688 25.467-15.32 33.724-27.677s12.665-26.887 12.665-41.749c0-19.929-7.918-39.047-22.010-53.137s-33.207-22.011-53.137-22.011zM764.6 71.959c-14.863 0-29.394 4.408-41.754 12.662-12.355 8.259-21.985 19.994-27.674 33.725s-7.178 28.841-4.275 43.418c2.898 14.577 10.056 27.971 20.562 38.477 10.511 10.511 23.9 17.669 38.477 20.567s29.686 1.413 43.418-4.275c13.732-5.688 25.467-15.319 33.725-27.679s12.667-26.885 12.667-41.748c0-19.932-7.921-39.045-22.011-53.135-14.095-14.095-33.208-22.011-53.135-22.011z" />
<glyph unicode="&#xe969;" glyph-name="sidebar-support" d="M562.893 46.323l-50.893 29.261 117.028 204.8h175.544c15.519 0 30.403 6.164 41.375 17.137s17.137 25.856 17.137 41.375v351.087c0 15.519-6.164 30.402-17.137 41.376s-25.856 17.138-41.375 17.138h-585.144c-15.519 0-30.402-6.165-41.376-17.138s-17.138-25.857-17.138-41.376v-351.087c0-15.519 6.164-30.403 17.138-41.375s25.857-17.137 41.376-17.137h263.314v-58.516h-263.314c-31.037 0-60.805 12.329-82.751 34.278-21.947 21.944-34.277 51.712-34.277 82.749v351.087c0 31.037 12.33 60.804 34.277 82.751s51.714 34.277 82.751 34.277h585.144c31.037 0 60.805-12.33 82.749-34.277 21.949-21.947 34.278-51.714 34.278-82.751v-351.087c0-31.037-12.329-60.805-34.278-82.749-21.944-21.949-51.712-34.278-82.749-34.278h-141.604l-100.076-175.544zM277.943 631.467h468.113v-58.514h-468.113v58.514zM277.943 455.924h292.574v-58.513h-292.574v58.513z" />
<glyph unicode="&#xe96a;" glyph-name="sidebar-pro" d="M921.6 518.813c-1.024-9.693-5.622-18.583-12.81-24.771l-178.719-182.744 42.337-258.084c0.379-3.42 0.548-6.861 0.492-10.307 0.2-6.528-1.618-12.954-5.176-18.314-1.71-2.458-3.978-4.429-6.6-5.734-2.621-1.3-5.514-1.894-8.412-1.72-6.953 0.225-13.732 2.355-19.661 6.185l-221.051 121.795-221.053-121.83c-5.961-3.743-12.719-5.868-19.661-6.18-2.974-0.205-5.948 0.379-8.654 1.684s-5.059 3.302-6.845 5.801c-3.561 5.361-5.377 11.786-5.177 18.314 0.123 3.456 0.452 6.897 0.983 10.307l42.336 258.084-179.208 182.744c-6.864 6.394-11.249 15.21-12.321 24.771 0 12.735 9.186 20.648 27.558 23.74l247.136 37.792 110.756 234.758c6.248 14.109 14.298 21.164 24.15 21.164s17.905-7.054 24.151-21.164l110.756-234.861 247.137-37.792c18.371-3.092 27.556-11.005 27.556-23.74v0.103z" />
</font>
</defs>
</svg>
